<svg xmlns="http://www.w3.org/2000/svg" xmlns:xlink="http://www.w3.org/1999/xlink" width="505" zoomAndPan="magnify" viewBox="0 0 378.75 196.499994" height="262" preserveAspectRatio="xMidYMid meet" version="1.0"><defs><g/><clipPath id="07e2ded83a"><path d="M 0.167969 46 L 37 46 L 37 95 L 0.167969 95 Z M 0.167969 46 " clip-rule="nonzero"/></clipPath><clipPath id="3b791e0734"><path d="M 282.910156 64.296875 L 300.246094 64.296875 L 300.246094 79.503906 L 282.910156 79.503906 Z M 282.910156 64.296875 " clip-rule="nonzero"/></clipPath><clipPath id="aafddfb3ce"><path d="M 283.597656 66.777344 C 282.191406 69.089844 283.179688 71.339844 284.421875 72.535156 L 291.691406 79.503906 L 298.800781 72.558594 C 299.957031 71.273438 300.402344 69.910156 300.15625 68.394531 C 299.816406 66.292969 298.085938 64.664062 295.949219 64.433594 C 294.636719 64.289062 293.371094 64.660156 292.382812 65.484375 C 292.117188 65.703125 291.878906 65.949219 291.671875 66.21875 C 291.425781 65.914062 291.136719 65.632812 290.8125 65.386719 C 289.675781 64.523438 288.226562 64.179688 286.835938 64.445312 C 285.523438 64.699219 284.339844 65.550781 283.597656 66.777344 Z M 283.597656 66.777344 " clip-rule="nonzero"/></clipPath><clipPath id="e09e6d1d09"><path d="M 0.910156 0.296875 L 18.246094 0.296875 L 18.246094 15.503906 L 0.910156 15.503906 Z M 0.910156 0.296875 " clip-rule="nonzero"/></clipPath><clipPath id="5bcd46c527"><path d="M 1.597656 2.777344 C 0.191406 5.089844 1.179688 7.339844 2.421875 8.535156 L 9.691406 15.503906 L 16.800781 8.558594 C 17.957031 7.273438 18.402344 5.910156 18.15625 4.394531 C 17.816406 2.292969 16.085938 0.664062 13.949219 0.433594 C 12.636719 0.289062 11.371094 0.660156 10.382812 1.484375 C 10.117188 1.703125 9.878906 1.949219 9.671875 2.21875 C 9.425781 1.914062 9.136719 1.632812 8.8125 1.386719 C 7.675781 0.523438 6.226562 0.179688 4.835938 0.445312 C 3.523438 0.699219 2.339844 1.550781 1.597656 2.777344 Z M 1.597656 2.777344 " clip-rule="nonzero"/></clipPath><clipPath id="d82770895e"><rect x="0" width="19" y="0" height="16"/></clipPath><clipPath id="34d2209a97"><path d="M 282 34 L 330.289062 34 L 330.289062 62 L 282 62 Z M 282 34 " clip-rule="nonzero"/></clipPath><clipPath id="f87e3e2aba"><path d="M 16 0.03125 L 25 0.03125 L 25 12 L 16 12 Z M 16 0.03125 " clip-rule="nonzero"/></clipPath><clipPath id="3ad4734464"><rect x="0" width="49" y="0" height="28"/></clipPath><clipPath id="3e3bf3cc07"><rect x="0" width="331" y="0" height="129"/></clipPath></defs><g transform="matrix(1, 0, 0, 1, 27, 33)"><g clip-path="url(#3e3bf3cc07)"><g clip-path="url(#07e2ded83a)"><g fill="#e27447" fill-opacity="1"><g transform="translate(0.194228, 94.726956)"><g><path d="M 0.671875 -44.921875 C 0.671875 -45.722656 0.863281 -46.328125 1.25 -46.734375 C 1.632812 -47.140625 2.109375 -47.425781 2.671875 -47.59375 C 3.242188 -47.757812 3.804688 -47.847656 4.359375 -47.859375 C 4.910156 -47.867188 5.363281 -47.875 5.71875 -47.875 L 14.296875 -47.875 C 14.648438 -47.875 15.101562 -47.867188 15.65625 -47.859375 C 16.207031 -47.847656 16.765625 -47.757812 17.328125 -47.59375 C 17.898438 -47.425781 18.378906 -47.140625 18.765625 -46.734375 C 19.148438 -46.328125 19.34375 -45.722656 19.34375 -44.921875 C 19.34375 -44.054688 19.269531 -43.269531 19.125 -42.5625 C 18.988281 -41.851562 18.800781 -41.132812 18.5625 -40.40625 C 18.332031 -39.6875 18.085938 -38.882812 17.828125 -38 C 17.578125 -37.113281 17.335938 -36.070312 17.109375 -34.875 C 16.878906 -33.675781 16.691406 -32.238281 16.546875 -30.5625 C 16.398438 -28.894531 16.328125 -26.910156 16.328125 -24.609375 L 16.328125 -13.859375 C 16.328125 -12.972656 16.359375 -12.179688 16.421875 -11.484375 C 16.492188 -10.785156 16.664062 -10.242188 16.9375 -9.859375 C 17.21875 -9.472656 17.664062 -9.28125 18.28125 -9.28125 C 19.90625 -9.28125 21.34375 -9.523438 22.59375 -10.015625 C 23.84375 -10.515625 24.972656 -11.128906 25.984375 -11.859375 C 26.992188 -12.597656 27.910156 -13.328125 28.734375 -14.046875 C 29.566406 -14.765625 30.363281 -15.375 31.125 -15.875 C 31.894531 -16.375 32.679688 -16.625 33.484375 -16.625 C 34.285156 -16.625 34.847656 -16.414062 35.171875 -16 C 35.503906 -15.59375 35.695312 -15.09375 35.75 -14.5 C 35.8125 -13.914062 35.84375 -13.347656 35.84375 -12.796875 L 35.84375 -3.296875 C 35.84375 -2.316406 35.535156 -1.519531 34.921875 -0.90625 C 34.316406 -0.300781 33.523438 0 32.546875 0 L 5.1875 0 C 4.832031 0 4.40625 -0.00390625 3.90625 -0.015625 C 3.40625 -0.0234375 2.90625 -0.113281 2.40625 -0.28125 C 1.90625 -0.445312 1.488281 -0.734375 1.15625 -1.140625 C 0.832031 -1.554688 0.671875 -2.160156 0.671875 -2.953125 C 0.671875 -4.085938 0.769531 -5.125 0.96875 -6.0625 C 1.164062 -7.007812 1.410156 -8 1.703125 -9.03125 C 2.003906 -10.0625 2.3125 -11.253906 2.625 -12.609375 C 2.9375 -13.972656 3.191406 -15.617188 3.390625 -17.546875 C 3.585938 -19.484375 3.6875 -21.835938 3.6875 -24.609375 C 3.6875 -26.910156 3.613281 -28.894531 3.46875 -30.5625 C 3.332031 -32.238281 3.144531 -33.675781 2.90625 -34.875 C 2.675781 -36.070312 2.429688 -37.113281 2.171875 -38 C 1.921875 -38.882812 1.675781 -39.6875 1.4375 -40.40625 C 1.207031 -41.132812 1.019531 -41.851562 0.875 -42.5625 C 0.738281 -43.269531 0.671875 -44.054688 0.671875 -44.921875 Z M 0.671875 -44.921875 "/></g></g></g></g><g fill="#e27447" fill-opacity="1"><g transform="translate(34.294744, 94.726956)"><g><path d="M 0.328125 -10.4375 C 0.328125 -11.632812 0.398438 -12.65625 0.546875 -13.5 C 0.691406 -14.34375 0.851562 -15.117188 1.03125 -15.828125 C 1.207031 -16.535156 1.367188 -17.257812 1.515625 -18 C 1.660156 -18.75 1.734375 -19.617188 1.734375 -20.609375 C 1.734375 -21.585938 1.664062 -22.460938 1.53125 -23.234375 C 1.394531 -24.015625 1.234375 -24.753906 1.046875 -25.453125 C 0.859375 -26.148438 0.695312 -26.875 0.5625 -27.625 C 0.425781 -28.382812 0.359375 -29.226562 0.359375 -30.15625 C 0.359375 -30.957031 0.566406 -31.582031 0.984375 -32.03125 C 1.410156 -32.488281 1.890625 -32.804688 2.421875 -32.984375 C 2.953125 -33.160156 3.375 -33.25 3.6875 -33.25 L 10.40625 -33.25 C 11.332031 -33.25 12.09375 -32.960938 12.6875 -32.390625 C 13.289062 -31.828125 13.757812 -31.109375 14.09375 -30.234375 C 14.425781 -29.359375 14.65625 -28.425781 14.78125 -27.4375 C 14.90625 -26.457031 14.96875 -25.546875 14.96875 -24.703125 C 14.96875 -23.015625 14.84375 -21.503906 14.59375 -20.171875 C 14.351562 -18.847656 14.070312 -17.660156 13.75 -16.609375 C 13.425781 -15.554688 13.140625 -14.609375 12.890625 -13.765625 C 12.648438 -12.921875 12.53125 -12.132812 12.53125 -11.40625 C 12.53125 -10.625 12.675781 -9.90625 12.96875 -9.25 C 13.257812 -8.601562 13.722656 -8.28125 14.359375 -8.28125 C 15.117188 -8.28125 15.765625 -8.597656 16.296875 -9.234375 C 16.828125 -9.878906 17.257812 -10.722656 17.59375 -11.765625 C 17.925781 -12.804688 18.164062 -13.925781 18.3125 -15.125 C 18.46875 -16.320312 18.546875 -17.488281 18.546875 -18.625 C 18.546875 -20.101562 18.488281 -21.398438 18.375 -22.515625 C 18.269531 -23.640625 18.144531 -24.640625 18 -25.515625 C 17.851562 -26.390625 17.722656 -27.207031 17.609375 -27.96875 C 17.503906 -28.738281 17.453125 -29.515625 17.453125 -30.296875 C 17.453125 -31.085938 17.609375 -31.6875 17.921875 -32.09375 C 18.234375 -32.507812 18.617188 -32.800781 19.078125 -32.96875 C 19.546875 -33.132812 20.023438 -33.222656 20.515625 -33.234375 C 21.003906 -33.242188 21.425781 -33.25 21.78125 -33.25 L 28.953125 -33.25 C 29.316406 -33.25 29.773438 -33.242188 30.328125 -33.234375 C 30.878906 -33.222656 31.4375 -33.132812 32 -32.96875 C 32.5625 -32.800781 33.035156 -32.507812 33.421875 -32.09375 C 33.816406 -31.6875 34.015625 -31.085938 34.015625 -30.296875 C 34.015625 -29.515625 33.863281 -28.640625 33.5625 -27.671875 C 33.257812 -26.710938 32.914062 -25.628906 32.53125 -24.421875 C 32.144531 -23.210938 31.800781 -21.859375 31.5 -20.359375 C 31.207031 -18.867188 31.0625 -17.191406 31.0625 -15.328125 C 31.0625 -13.835938 31.207031 -12.5 31.5 -11.3125 C 31.800781 -10.132812 32.15625 -9.054688 32.5625 -8.078125 C 32.976562 -7.097656 33.332031 -6.191406 33.625 -5.359375 C 33.925781 -4.535156 34.078125 -3.734375 34.078125 -2.953125 C 34.078125 -2.160156 33.910156 -1.554688 33.578125 -1.140625 C 33.242188 -0.734375 32.828125 -0.445312 32.328125 -0.28125 C 31.835938 -0.113281 31.34375 -0.0234375 30.84375 -0.015625 C 30.34375 -0.00390625 29.914062 0 29.5625 0 L 23.4375 0 C 22.21875 0 21.25 -0.195312 20.53125 -0.59375 C 19.8125 -1 19.265625 -1.65625 18.890625 -2.5625 C 18.617188 -2.050781 18.078125 -1.5625 17.265625 -1.09375 C 16.460938 -0.632812 15.550781 -0.253906 14.53125 0.046875 C 13.507812 0.347656 12.546875 0.5 11.640625 0.5 C 8.828125 0.5 6.59375 0.03125 4.9375 -0.90625 C 3.28125 -1.851562 2.097656 -3.144531 1.390625 -4.78125 C 0.679688 -6.425781 0.328125 -8.3125 0.328125 -10.4375 Z M 0.328125 -10.4375 "/></g></g></g><g fill="#e27447" fill-opacity="1"><g transform="translate(65.968894, 94.726956)"><g><path d="M 0.671875 -34.375 L 0.671875 -44.484375 C 0.671875 -45.503906 0.976562 -46.320312 1.59375 -46.9375 C 2.21875 -47.5625 3.039062 -47.875 4.0625 -47.875 L 34.046875 -47.875 C 35.066406 -47.875 35.882812 -47.5625 36.5 -46.9375 C 37.125 -46.320312 37.4375 -45.503906 37.4375 -44.484375 L 37.4375 -34.375 C 37.4375 -33.863281 37.257812 -33.453125 36.90625 -33.140625 C 36.550781 -32.835938 36.128906 -32.6875 35.640625 -32.6875 C 34.953125 -32.6875 34.3125 -32.816406 33.71875 -33.078125 C 33.132812 -33.347656 32.554688 -33.6875 31.984375 -34.09375 C 31.410156 -34.507812 30.816406 -34.914062 30.203125 -35.3125 C 29.597656 -35.707031 28.921875 -36.035156 28.171875 -36.296875 C 27.429688 -36.566406 26.597656 -36.703125 25.671875 -36.703125 L 25.171875 -36.703125 L 25.171875 -23.9375 C 25.171875 -21.5625 25.242188 -19.515625 25.390625 -17.796875 C 25.535156 -16.085938 25.722656 -14.609375 25.953125 -13.359375 C 26.179688 -12.117188 26.421875 -11.046875 26.671875 -10.140625 C 26.929688 -9.234375 27.175781 -8.410156 27.40625 -7.671875 C 27.644531 -6.941406 27.835938 -6.210938 27.984375 -5.484375 C 28.128906 -4.753906 28.203125 -3.9375 28.203125 -3.03125 C 28.203125 -2.207031 28.003906 -1.582031 27.609375 -1.15625 C 27.222656 -0.738281 26.75 -0.445312 26.1875 -0.28125 C 25.625 -0.113281 25.0625 -0.0234375 24.5 -0.015625 C 23.945312 -0.00390625 23.492188 0 23.140625 0 L 14.5625 0 C 14.207031 0 13.753906 -0.00390625 13.203125 -0.015625 C 12.648438 -0.0234375 12.085938 -0.113281 11.515625 -0.28125 C 10.953125 -0.445312 10.476562 -0.738281 10.09375 -1.15625 C 9.707031 -1.582031 9.515625 -2.207031 9.515625 -3.03125 C 9.515625 -3.9375 9.582031 -4.753906 9.71875 -5.484375 C 9.863281 -6.210938 10.050781 -6.941406 10.28125 -7.671875 C 10.519531 -8.410156 10.765625 -9.234375 11.015625 -10.140625 C 11.273438 -11.046875 11.519531 -12.117188 11.75 -13.359375 C 11.988281 -14.609375 12.175781 -16.085938 12.3125 -17.796875 C 12.457031 -19.515625 12.53125 -21.5625 12.53125 -23.9375 L 12.53125 -36.703125 L 12.4375 -36.703125 C 11.5 -36.703125 10.660156 -36.566406 9.921875 -36.296875 C 9.179688 -36.035156 8.503906 -35.707031 7.890625 -35.3125 C 7.285156 -34.914062 6.691406 -34.507812 6.109375 -34.09375 C 5.535156 -33.6875 4.953125 -33.347656 4.359375 -33.078125 C 3.773438 -32.816406 3.140625 -32.6875 2.453125 -32.6875 C 1.972656 -32.6875 1.554688 -32.835938 1.203125 -33.140625 C 0.847656 -33.453125 0.671875 -33.863281 0.671875 -34.375 Z M 0.671875 -34.375 "/></g></g></g><g fill="#e27447" fill-opacity="1"><g transform="translate(101.332451, 94.726956)"><g><path d="M 0.671875 -34.375 L 0.671875 -44.484375 C 0.671875 -45.503906 0.976562 -46.320312 1.59375 -46.9375 C 2.21875 -47.5625 3.039062 -47.875 4.0625 -47.875 L 34.046875 -47.875 C 35.066406 -47.875 35.882812 -47.5625 36.5 -46.9375 C 37.125 -46.320312 37.4375 -45.503906 37.4375 -44.484375 L 37.4375 -34.375 C 37.4375 -33.863281 37.257812 -33.453125 36.90625 -33.140625 C 36.550781 -32.835938 36.128906 -32.6875 35.640625 -32.6875 C 34.953125 -32.6875 34.3125 -32.816406 33.71875 -33.078125 C 33.132812 -33.347656 32.554688 -33.6875 31.984375 -34.09375 C 31.410156 -34.507812 30.816406 -34.914062 30.203125 -35.3125 C 29.597656 -35.707031 28.921875 -36.035156 28.171875 -36.296875 C 27.429688 -36.566406 26.597656 -36.703125 25.671875 -36.703125 L 25.171875 -36.703125 L 25.171875 -23.9375 C 25.171875 -21.5625 25.242188 -19.515625 25.390625 -17.796875 C 25.535156 -16.085938 25.722656 -14.609375 25.953125 -13.359375 C 26.179688 -12.117188 26.421875 -11.046875 26.671875 -10.140625 C 26.929688 -9.234375 27.175781 -8.410156 27.40625 -7.671875 C 27.644531 -6.941406 27.835938 -6.210938 27.984375 -5.484375 C 28.128906 -4.753906 28.203125 -3.9375 28.203125 -3.03125 C 28.203125 -2.207031 28.003906 -1.582031 27.609375 -1.15625 C 27.222656 -0.738281 26.75 -0.445312 26.1875 -0.28125 C 25.625 -0.113281 25.0625 -0.0234375 24.5 -0.015625 C 23.945312 -0.00390625 23.492188 0 23.140625 0 L 14.5625 0 C 14.207031 0 13.753906 -0.00390625 13.203125 -0.015625 C 12.648438 -0.0234375 12.085938 -0.113281 11.515625 -0.28125 C 10.953125 -0.445312 10.476562 -0.738281 10.09375 -1.15625 C 9.707031 -1.582031 9.515625 -2.207031 9.515625 -3.03125 C 9.515625 -3.9375 9.582031 -4.753906 9.71875 -5.484375 C 9.863281 -6.210938 10.050781 -6.941406 10.28125 -7.671875 C 10.519531 -8.410156 10.765625 -9.234375 11.015625 -10.140625 C 11.273438 -11.046875 11.519531 -12.117188 11.75 -13.359375 C 11.988281 -14.609375 12.175781 -16.085938 12.3125 -17.796875 C 12.457031 -19.515625 12.53125 -21.5625 12.53125 -23.9375 L 12.53125 -36.703125 L 12.4375 -36.703125 C 11.5 -36.703125 10.660156 -36.566406 9.921875 -36.296875 C 9.179688 -36.035156 8.503906 -35.707031 7.890625 -35.3125 C 7.285156 -34.914062 6.691406 -34.507812 6.109375 -34.09375 C 5.535156 -33.6875 4.953125 -33.347656 4.359375 -33.078125 C 3.773438 -32.816406 3.140625 -32.6875 2.453125 -32.6875 C 1.972656 -32.6875 1.554688 -32.835938 1.203125 -33.140625 C 0.847656 -33.453125 0.671875 -33.863281 0.671875 -34.375 Z M 0.671875 -34.375 "/></g></g></g><g fill="#e27447" fill-opacity="1"><g transform="translate(142.33838, 91.793049)"><g><path d="M 8.96875 -14.203125 L 8.96875 -12.9375 C 8.96875 -10.925781 9.457031 -9.359375 10.4375 -8.234375 C 11.425781 -7.117188 12.71875 -6.5625 14.3125 -6.5625 C 15.96875 -6.5625 17.6875 -6.953125 19.46875 -7.734375 C 21.257812 -8.515625 23.035156 -9.550781 24.796875 -10.84375 C 26.554688 -12.132812 28.710938 -13.867188 31.265625 -16.046875 L 31.265625 -12.9375 C 27.429688 -8.320312 23.832031 -4.78125 20.46875 -2.3125 C 17.101562 0.144531 13.691406 1.375 10.234375 1.375 C 7.210938 1.375 4.816406 0.203125 3.046875 -2.140625 C 1.285156 -4.484375 0.40625 -7.691406 0.40625 -11.765625 C 0.40625 -15.328125 1.234375 -18.554688 2.890625 -21.453125 C 4.554688 -24.359375 7.273438 -27.425781 11.046875 -30.65625 C 13.628906 -32.863281 16.191406 -34.523438 18.734375 -35.640625 C 21.285156 -36.765625 23.5625 -37.328125 25.5625 -37.328125 C 27.15625 -37.328125 28.414062 -36.960938 29.34375 -36.234375 C 30.28125 -35.503906 30.75 -34.40625 30.75 -32.9375 C 30.75 -30.800781 29.953125 -28.671875 28.359375 -26.546875 C 26.765625 -24.429688 24.328125 -22.328125 21.046875 -20.234375 C 17.773438 -18.148438 13.75 -16.140625 8.96875 -14.203125 Z M 9.46875 -17.515625 C 12.519531 -18.703125 15.132812 -20.175781 17.3125 -21.9375 C 19.488281 -23.707031 21.09375 -25.398438 22.125 -27.015625 C 23.15625 -28.628906 23.671875 -29.804688 23.671875 -30.546875 C 23.671875 -31.328125 23.316406 -31.71875 22.609375 -31.71875 C 21.992188 -31.71875 21 -31.328125 19.625 -30.546875 C 18.25 -29.765625 16.859375 -28.742188 15.453125 -27.484375 C 14.046875 -26.234375 12.78125 -24.757812 11.65625 -23.0625 C 10.539062 -21.363281 9.8125 -19.515625 9.46875 -17.515625 Z M 9.46875 -17.515625 "/></g></g></g><g fill="#e27447" fill-opacity="1"><g transform="translate(172.995167, 91.793049)"><g><path d="M 0.3125 -12.125 L 0.3125 -15.421875 C 2.144531 -17.597656 3.535156 -19.453125 4.484375 -20.984375 C 3.390625 -21.347656 2.597656 -21.800781 2.109375 -22.34375 C 1.617188 -22.894531 1.375 -23.710938 1.375 -24.796875 C 1.375 -26.015625 1.882812 -27.554688 2.90625 -29.421875 C 3.925781 -31.296875 5.179688 -33.046875 6.671875 -34.671875 C 8.160156 -36.304688 9.519531 -37.359375 10.75 -37.828125 C 11.21875 -38.066406 11.675781 -38.1875 12.125 -38.1875 C 12.800781 -38.1875 13.140625 -37.863281 13.140625 -37.21875 C 13.140625 -36.644531 12.613281 -35.472656 11.5625 -33.703125 C 18.550781 -34.796875 22.960938 -35.34375 24.796875 -35.34375 C 25.503906 -35.34375 26 -35.273438 26.28125 -35.140625 C 26.851562 -34.828125 27.328125 -34.109375 27.703125 -32.984375 C 28.078125 -31.867188 28.265625 -30.753906 28.265625 -29.640625 C 28.265625 -28.921875 27.945312 -28.144531 27.3125 -27.3125 C 26.6875 -26.488281 25.609375 -25.273438 24.078125 -23.671875 C 22.285156 -21.742188 20.773438 -19.640625 19.546875 -17.359375 C 18.328125 -15.085938 17.71875 -13.375 17.71875 -12.21875 C 17.71875 -10.625 18.703125 -9.828125 20.671875 -9.828125 C 22.742188 -9.828125 26.34375 -11.929688 31.46875 -16.140625 L 31.46875 -12.734375 C 28.644531 -9.773438 26.316406 -7.445312 24.484375 -5.75 C 22.660156 -4.050781 20.96875 -2.703125 19.40625 -1.703125 C 17.84375 -0.703125 16.445312 -0.203125 15.21875 -0.203125 C 13.800781 -0.203125 12.613281 -0.851562 11.65625 -2.15625 C 10.707031 -3.46875 10.234375 -5.363281 10.234375 -7.84375 C 10.234375 -9.300781 10.601562 -10.960938 11.34375 -12.828125 C 12.09375 -14.691406 13.1875 -16.71875 14.625 -18.90625 C 16.070312 -21.101562 17.695312 -23.285156 19.5 -25.453125 C 18.550781 -25.253906 17.484375 -25.039062 16.296875 -24.8125 C 15.109375 -24.59375 13.851562 -24.363281 12.53125 -24.125 C 11.207031 -23.894531 10.1875 -23.710938 9.46875 -23.578125 C 7.363281 -19.367188 4.3125 -15.550781 0.3125 -12.125 Z M 0.3125 -12.125 "/></g></g></g><g fill="#e27447" fill-opacity="1"><g transform="translate(203.651955, 91.793049)"><g><path d="M 33.5625 -16.140625 L 33.5625 -12.734375 C 31.3125 -10.691406 29.507812 -9.332031 28.15625 -8.65625 C 26.800781 -7.976562 24.847656 -7.707031 22.296875 -7.84375 C 17.890625 -2.613281 14.003906 0 10.640625 0 C 8.742188 0 7.015625 -0.625 5.453125 -1.875 C 3.890625 -3.132812 2.640625 -4.847656 1.703125 -7.015625 C 0.773438 -9.191406 0.3125 -11.625 0.3125 -14.3125 C 0.3125 -16.476562 1.03125 -18.882812 2.46875 -21.53125 C 3.914062 -24.1875 5.78125 -26.660156 8.0625 -28.953125 C 10.351562 -31.242188 12.804688 -33.09375 15.421875 -34.5 C 18.035156 -35.90625 20.460938 -36.609375 22.703125 -36.609375 C 24.304688 -36.609375 25.566406 -36.363281 26.484375 -35.875 C 27.398438 -35.382812 27.859375 -34.695312 27.859375 -33.8125 C 27.859375 -33.132812 27.46875 -32.351562 26.6875 -31.46875 C 27.96875 -31.195312 28.847656 -30.742188 29.328125 -30.109375 C 29.804688 -29.484375 30.046875 -28.34375 30.046875 -26.6875 C 30.046875 -25.050781 29.660156 -22.992188 28.890625 -20.515625 C 28.128906 -18.035156 27.085938 -15.710938 25.765625 -13.546875 L 26.6875 -12.625 L 27.4375 -12.625 C 28.019531 -12.625 28.585938 -12.769531 29.140625 -13.0625 C 29.703125 -13.351562 30.203125 -13.65625 30.640625 -13.96875 C 31.085938 -14.289062 32.0625 -15.015625 33.5625 -16.140625 Z M 23.0625 -29.53125 C 20.25 -27.832031 17.835938 -26.296875 15.828125 -24.921875 C 13.828125 -23.546875 12.128906 -22.15625 10.734375 -20.75 C 9.347656 -19.34375 8.414062 -17.925781 7.9375 -16.5 C 7.09375 -12.695312 6.671875 -10.644531 6.671875 -10.34375 C 6.671875 -8.09375 8.234375 -6.96875 11.359375 -6.96875 C 12.816406 -6.96875 15.257812 -8.226562 18.6875 -10.75 C 18.113281 -12.34375 17.828125 -13.867188 17.828125 -15.328125 C 17.828125 -17.460938 18.265625 -19.640625 19.140625 -21.859375 C 20.023438 -24.085938 21.332031 -26.644531 23.0625 -29.53125 Z M 23.0625 -29.53125 "/></g></g></g><g fill="#e27447" fill-opacity="1"><g transform="translate(236.498171, 91.793049)"><g><path d="M 0.609375 -14.609375 L 0.609375 -15.828125 C 9.367188 -25.066406 15.394531 -31.535156 18.6875 -35.234375 C 19.4375 -39.410156 21.234375 -41.5 24.078125 -41.5 C 24.796875 -41.5 25.5625 -41.296875 26.375 -40.890625 L 26.6875 -39.921875 C 26.550781 -39.515625 26.484375 -38.9375 26.484375 -38.1875 C 26.484375 -37.539062 26.726562 -36.34375 27.21875 -34.59375 C 27.707031 -32.851562 28.085938 -31.382812 28.359375 -30.1875 C 28.628906 -29 28.765625 -27.660156 28.765625 -26.171875 C 28.765625 -23.929688 28.253906 -21.785156 27.234375 -19.734375 C 26.222656 -17.679688 24.75 -15.710938 22.8125 -13.828125 C 20.875 -11.941406 18.378906 -10.015625 15.328125 -8.046875 C 16.546875 -7.835938 17.515625 -7.734375 18.234375 -7.734375 C 19.617188 -7.734375 21.117188 -8.082031 22.734375 -8.78125 C 24.347656 -9.476562 25.992188 -10.410156 27.671875 -11.578125 C 29.347656 -12.753906 31.3125 -14.273438 33.5625 -16.140625 L 33.5625 -12.734375 C 29.207031 -8.484375 25.316406 -5.265625 21.890625 -3.078125 C 18.460938 -0.890625 15.507812 0.203125 13.03125 0.203125 C 9.84375 0.203125 6.890625 -1.15625 4.171875 -3.875 C 2.578125 -5.5 1.582031 -7.054688 1.1875 -8.546875 C 0.800781 -10.046875 0.609375 -12.066406 0.609375 -14.609375 Z M 19.609375 -22.40625 L 18.6875 -29.84375 C 16.582031 -27.46875 12.082031 -22.898438 5.1875 -16.140625 C 7.226562 -15.703125 8.617188 -15.109375 9.359375 -14.359375 C 10.109375 -13.609375 11.164062 -12.164062 12.53125 -10.03125 C 14.832031 -10.976562 16.601562 -12.273438 17.84375 -13.921875 C 19.082031 -15.566406 19.703125 -17.816406 19.703125 -20.671875 C 19.703125 -21.015625 19.691406 -21.320312 19.671875 -21.59375 C 19.660156 -21.863281 19.640625 -22.132812 19.609375 -22.40625 Z M 19.609375 -22.40625 "/></g></g></g><g clip-path="url(#3b791e0734)"><g clip-path="url(#aafddfb3ce)"><g transform="matrix(1, 0, 0, 1, 282, 64)"><g clip-path="url(#d82770895e)"><g clip-path="url(#e09e6d1d09)"><g clip-path="url(#5bcd46c527)"><path fill="#e27447" d="M 0.910156 0.359375 L 18.246094 0.359375 L 18.246094 15.503906 L 0.910156 15.503906 Z M 0.910156 0.359375 " fill-opacity="1" fill-rule="nonzero"/></g></g></g></g></g></g><g clip-path="url(#34d2209a97)"><g transform="matrix(1, 0, 0, 1, 282, 34)"><g clip-path="url(#3ad4734464)"><g fill="#e27447" fill-opacity="1"><g transform="translate(0.909579, 11.642167)"><g><path d="M 0.59375 -1.1875 C 0.382812 -1.4375 0.28125 -1.65625 0.28125 -1.84375 C 0.28125 -2.039062 0.445312 -2.300781 0.78125 -2.625 C 0.976562 -2.8125 1.179688 -2.90625 1.390625 -2.90625 C 1.609375 -2.90625 1.910156 -2.710938 2.296875 -2.328125 C 2.398438 -2.203125 2.550781 -2.078125 2.75 -1.953125 C 2.957031 -1.835938 3.144531 -1.78125 3.3125 -1.78125 C 4.03125 -1.78125 4.390625 -2.070312 4.390625 -2.65625 C 4.390625 -2.832031 4.289062 -2.976562 4.09375 -3.09375 C 3.894531 -3.21875 3.648438 -3.304688 3.359375 -3.359375 C 3.066406 -3.410156 2.75 -3.492188 2.40625 -3.609375 C 2.070312 -3.734375 1.757812 -3.875 1.46875 -4.03125 C 1.175781 -4.195312 0.929688 -4.453125 0.734375 -4.796875 C 0.535156 -5.148438 0.4375 -5.578125 0.4375 -6.078125 C 0.4375 -6.753906 0.6875 -7.34375 1.1875 -7.84375 C 1.695312 -8.351562 2.382812 -8.609375 3.25 -8.609375 C 3.71875 -8.609375 4.140625 -8.546875 4.515625 -8.421875 C 4.898438 -8.304688 5.164062 -8.1875 5.3125 -8.0625 L 5.59375 -7.84375 C 5.832031 -7.613281 5.953125 -7.421875 5.953125 -7.265625 C 5.953125 -7.117188 5.863281 -6.910156 5.6875 -6.640625 C 5.414062 -6.253906 5.144531 -6.0625 4.875 -6.0625 C 4.707031 -6.0625 4.503906 -6.140625 4.265625 -6.296875 C 4.242188 -6.304688 4.203125 -6.34375 4.140625 -6.40625 C 4.078125 -6.46875 4.015625 -6.519531 3.953125 -6.5625 C 3.796875 -6.65625 3.59375 -6.703125 3.34375 -6.703125 C 3.09375 -6.703125 2.882812 -6.640625 2.71875 -6.515625 C 2.550781 -6.398438 2.46875 -6.238281 2.46875 -6.03125 C 2.46875 -5.820312 2.566406 -5.648438 2.765625 -5.515625 C 2.960938 -5.390625 3.207031 -5.300781 3.5 -5.25 C 3.789062 -5.207031 4.109375 -5.132812 4.453125 -5.03125 C 4.804688 -4.9375 5.128906 -4.820312 5.421875 -4.6875 C 5.710938 -4.550781 5.953125 -4.3125 6.140625 -3.96875 C 6.335938 -3.625 6.4375 -3.203125 6.4375 -2.703125 C 6.4375 -2.203125 6.335938 -1.757812 6.140625 -1.375 C 5.941406 -1 5.679688 -0.707031 5.359375 -0.5 C 4.734375 -0.09375 4.066406 0.109375 3.359375 0.109375 C 2.992188 0.109375 2.648438 0.0664062 2.328125 -0.015625 C 2.003906 -0.109375 1.742188 -0.21875 1.546875 -0.34375 C 1.140625 -0.59375 0.851562 -0.832031 0.6875 -1.0625 Z M 0.59375 -1.1875 "/></g></g></g><g fill="#e27447" fill-opacity="1"><g transform="translate(7.641822, 11.642167)"><g><path d="M 5.34375 -7.859375 L 8.46875 -1.421875 C 8.59375 -1.160156 8.65625 -0.960938 8.65625 -0.828125 C 8.65625 -0.554688 8.429688 -0.304688 7.984375 -0.078125 C 7.722656 0.046875 7.515625 0.109375 7.359375 0.109375 C 7.210938 0.109375 7.09375 0.0703125 7 0 C 6.90625 -0.0625 6.835938 -0.128906 6.796875 -0.203125 C 6.753906 -0.285156 6.691406 -0.398438 6.609375 -0.546875 L 6.015625 -1.796875 L 2.8125 -1.796875 L 2.21875 -0.546875 C 2.132812 -0.398438 2.070312 -0.289062 2.03125 -0.21875 C 1.988281 -0.144531 1.921875 -0.0703125 1.828125 0 C 1.734375 0.0703125 1.609375 0.109375 1.453125 0.109375 C 1.304688 0.109375 1.101562 0.0390625 0.84375 -0.09375 C 0.394531 -0.3125 0.171875 -0.554688 0.171875 -0.828125 C 0.171875 -0.960938 0.238281 -1.160156 0.375 -1.421875 L 3.484375 -7.875 C 3.566406 -8.050781 3.695312 -8.191406 3.875 -8.296875 C 4.050781 -8.410156 4.234375 -8.46875 4.421875 -8.46875 C 4.835938 -8.46875 5.144531 -8.265625 5.34375 -7.859375 Z M 4.40625 -5.09375 L 3.65625 -3.515625 L 5.1875 -3.515625 Z M 4.40625 -5.09375 "/></g></g></g><g clip-path="url(#f87e3e2aba)"><g fill="#e27447" fill-opacity="1"><g transform="translate(16.475731, 11.642167)"><g><path d="M 5.984375 -8.15625 C 6.066406 -8.28125 6.179688 -8.363281 6.328125 -8.40625 C 6.472656 -8.445312 6.65625 -8.46875 6.875 -8.46875 C 7.09375 -8.46875 7.265625 -8.445312 7.390625 -8.40625 C 7.523438 -8.375 7.628906 -8.332031 7.703125 -8.28125 C 7.773438 -8.226562 7.828125 -8.144531 7.859375 -8.03125 C 7.898438 -7.90625 7.921875 -7.707031 7.921875 -7.4375 L 7.921875 -3.953125 C 7.921875 -2.929688 7.601562 -2.003906 6.96875 -1.171875 C 6.664062 -0.785156 6.269531 -0.46875 5.78125 -0.21875 C 5.300781 0.0195312 4.765625 0.140625 4.171875 0.140625 C 3.585938 0.140625 3.050781 0.0195312 2.5625 -0.21875 C 2.082031 -0.46875 1.691406 -0.796875 1.390625 -1.203125 C 0.773438 -2.015625 0.46875 -2.9375 0.46875 -3.96875 L 0.46875 -7.453125 C 0.46875 -7.628906 0.472656 -7.757812 0.484375 -7.84375 C 0.492188 -7.9375 0.53125 -8.039062 0.59375 -8.15625 C 0.65625 -8.28125 0.757812 -8.363281 0.90625 -8.40625 C 1.050781 -8.445312 1.242188 -8.46875 1.484375 -8.46875 C 1.734375 -8.46875 1.929688 -8.445312 2.078125 -8.40625 C 2.222656 -8.363281 2.320312 -8.28125 2.375 -8.15625 C 2.46875 -7.976562 2.515625 -7.738281 2.515625 -7.4375 L 2.515625 -3.96875 C 2.515625 -3.5 2.628906 -3.050781 2.859375 -2.625 C 2.972656 -2.414062 3.144531 -2.242188 3.375 -2.109375 C 3.613281 -1.984375 3.890625 -1.921875 4.203125 -1.921875 C 4.765625 -1.921875 5.179688 -2.125 5.453125 -2.53125 C 5.734375 -2.945312 5.875 -3.429688 5.875 -3.984375 L 5.875 -7.515625 C 5.875 -7.816406 5.910156 -8.03125 5.984375 -8.15625 Z M 4.03125 -8.953125 L 3.6875 -8.875 C 3.457031 -8.875 3.269531 -9.101562 3.125 -9.5625 C 3.0625 -9.75 3.03125 -9.90625 3.03125 -10.03125 C 3.03125 -10.164062 3.050781 -10.265625 3.09375 -10.328125 C 3.164062 -10.429688 3.304688 -10.515625 3.515625 -10.578125 L 5.421875 -11.171875 C 5.628906 -11.222656 5.742188 -11.25 5.765625 -11.25 C 6.003906 -11.25 6.191406 -11.019531 6.328125 -10.5625 C 6.390625 -10.375 6.421875 -10.21875 6.421875 -10.09375 C 6.421875 -9.96875 6.394531 -9.867188 6.34375 -9.796875 C 6.269531 -9.703125 6.128906 -9.625 5.921875 -9.5625 Z M 4.03125 -8.953125 "/></g></g></g></g><g fill="#e27447" fill-opacity="1"><g transform="translate(24.859286, 11.642167)"><g><path d="M 1.484375 -8.46875 L 3.625 -8.46875 C 4.738281 -8.46875 5.71875 -8.0625 6.5625 -7.25 C 7.414062 -6.445312 7.84375 -5.457031 7.84375 -4.28125 C 7.84375 -3.113281 7.425781 -2.109375 6.59375 -1.265625 C 5.769531 -0.429688 4.769531 -0.015625 3.59375 -0.015625 L 1.484375 -0.015625 C 1.015625 -0.015625 0.71875 -0.109375 0.59375 -0.296875 C 0.507812 -0.460938 0.46875 -0.710938 0.46875 -1.046875 L 0.46875 -7.453125 C 0.46875 -7.640625 0.472656 -7.773438 0.484375 -7.859375 C 0.492188 -7.941406 0.53125 -8.039062 0.59375 -8.15625 C 0.695312 -8.363281 0.992188 -8.46875 1.484375 -8.46875 Z M 3.625 -2.0625 C 4.175781 -2.0625 4.675781 -2.265625 5.125 -2.671875 C 5.570312 -3.085938 5.796875 -3.601562 5.796875 -4.21875 C 5.796875 -4.84375 5.578125 -5.363281 5.140625 -5.78125 C 4.703125 -6.207031 4.191406 -6.421875 3.609375 -6.421875 L 2.5 -6.421875 L 2.5 -2.0625 Z M 3.625 -2.0625 "/></g></g></g><g fill="#e27447" fill-opacity="1"><g transform="translate(32.988788, 11.642167)"><g><path d="M 2.5 -2.046875 L 6.0625 -2.046875 C 6.238281 -2.046875 6.367188 -2.039062 6.453125 -2.03125 C 6.546875 -2.019531 6.648438 -1.984375 6.765625 -1.921875 C 6.972656 -1.804688 7.078125 -1.503906 7.078125 -1.015625 C 7.078125 -0.472656 6.9375 -0.15625 6.65625 -0.0625 C 6.519531 -0.0195312 6.316406 0 6.046875 0 L 1.484375 0 C 0.941406 0 0.625 -0.144531 0.53125 -0.4375 C 0.488281 -0.5625 0.46875 -0.757812 0.46875 -1.03125 L 0.46875 -7.453125 C 0.46875 -7.835938 0.539062 -8.101562 0.6875 -8.25 C 0.832031 -8.394531 1.109375 -8.46875 1.515625 -8.46875 L 6.0625 -8.46875 C 6.238281 -8.46875 6.367188 -8.457031 6.453125 -8.4375 C 6.546875 -8.425781 6.648438 -8.394531 6.765625 -8.34375 C 6.972656 -8.226562 7.078125 -7.925781 7.078125 -7.4375 C 7.078125 -6.894531 6.9375 -6.578125 6.65625 -6.484375 C 6.519531 -6.441406 6.316406 -6.421875 6.046875 -6.421875 L 2.5 -6.421875 L 2.5 -5.25 L 4.796875 -5.25 C 4.972656 -5.25 5.101562 -5.242188 5.1875 -5.234375 C 5.28125 -5.222656 5.382812 -5.1875 5.5 -5.125 C 5.707031 -5.019531 5.8125 -4.71875 5.8125 -4.21875 C 5.8125 -3.6875 5.664062 -3.375 5.375 -3.28125 C 5.238281 -3.226562 5.035156 -3.203125 4.765625 -3.203125 L 2.5 -3.203125 Z M 2.5 -2.046875 "/></g></g></g><g fill="#e27447" fill-opacity="1"><g transform="translate(0.909579, 24.151967)"><g><path d="M 0.59375 -1.1875 C 0.382812 -1.4375 0.28125 -1.65625 0.28125 -1.84375 C 0.28125 -2.039062 0.445312 -2.300781 0.78125 -2.625 C 0.976562 -2.8125 1.179688 -2.90625 1.390625 -2.90625 C 1.609375 -2.90625 1.910156 -2.710938 2.296875 -2.328125 C 2.398438 -2.203125 2.550781 -2.078125 2.75 -1.953125 C 2.957031 -1.835938 3.144531 -1.78125 3.3125 -1.78125 C 4.03125 -1.78125 4.390625 -2.070312 4.390625 -2.65625 C 4.390625 -2.832031 4.289062 -2.976562 4.09375 -3.09375 C 3.894531 -3.21875 3.648438 -3.304688 3.359375 -3.359375 C 3.066406 -3.410156 2.75 -3.492188 2.40625 -3.609375 C 2.070312 -3.734375 1.757812 -3.875 1.46875 -4.03125 C 1.175781 -4.195312 0.929688 -4.453125 0.734375 -4.796875 C 0.535156 -5.148438 0.4375 -5.578125 0.4375 -6.078125 C 0.4375 -6.753906 0.6875 -7.34375 1.1875 -7.84375 C 1.695312 -8.351562 2.382812 -8.609375 3.25 -8.609375 C 3.71875 -8.609375 4.140625 -8.546875 4.515625 -8.421875 C 4.898438 -8.304688 5.164062 -8.1875 5.3125 -8.0625 L 5.59375 -7.84375 C 5.832031 -7.613281 5.953125 -7.421875 5.953125 -7.265625 C 5.953125 -7.117188 5.863281 -6.910156 5.6875 -6.640625 C 5.414062 -6.253906 5.144531 -6.0625 4.875 -6.0625 C 4.707031 -6.0625 4.503906 -6.140625 4.265625 -6.296875 C 4.242188 -6.304688 4.203125 -6.34375 4.140625 -6.40625 C 4.078125 -6.46875 4.015625 -6.519531 3.953125 -6.5625 C 3.796875 -6.65625 3.59375 -6.703125 3.34375 -6.703125 C 3.09375 -6.703125 2.882812 -6.640625 2.71875 -6.515625 C 2.550781 -6.398438 2.46875 -6.238281 2.46875 -6.03125 C 2.46875 -5.820312 2.566406 -5.648438 2.765625 -5.515625 C 2.960938 -5.390625 3.207031 -5.300781 3.5 -5.25 C 3.789062 -5.207031 4.109375 -5.132812 4.453125 -5.03125 C 4.804688 -4.9375 5.128906 -4.820312 5.421875 -4.6875 C 5.710938 -4.550781 5.953125 -4.3125 6.140625 -3.96875 C 6.335938 -3.625 6.4375 -3.203125 6.4375 -2.703125 C 6.4375 -2.203125 6.335938 -1.757812 6.140625 -1.375 C 5.941406 -1 5.679688 -0.707031 5.359375 -0.5 C 4.734375 -0.09375 4.066406 0.109375 3.359375 0.109375 C 2.992188 0.109375 2.648438 0.0664062 2.328125 -0.015625 C 2.003906 -0.109375 1.742188 -0.21875 1.546875 -0.34375 C 1.140625 -0.59375 0.851562 -0.832031 0.6875 -1.0625 Z M 0.59375 -1.1875 "/></g></g></g><g fill="#e27447" fill-opacity="1"><g transform="translate(7.641822, 24.151967)"><g><path d="M 2.5 -2.046875 L 6.0625 -2.046875 C 6.238281 -2.046875 6.367188 -2.039062 6.453125 -2.03125 C 6.546875 -2.019531 6.648438 -1.984375 6.765625 -1.921875 C 6.972656 -1.804688 7.078125 -1.503906 7.078125 -1.015625 C 7.078125 -0.472656 6.9375 -0.15625 6.65625 -0.0625 C 6.519531 -0.0195312 6.316406 0 6.046875 0 L 1.484375 0 C 0.941406 0 0.625 -0.144531 0.53125 -0.4375 C 0.488281 -0.5625 0.46875 -0.757812 0.46875 -1.03125 L 0.46875 -7.453125 C 0.46875 -7.835938 0.539062 -8.101562 0.6875 -8.25 C 0.832031 -8.394531 1.109375 -8.46875 1.515625 -8.46875 L 6.0625 -8.46875 C 6.238281 -8.46875 6.367188 -8.457031 6.453125 -8.4375 C 6.546875 -8.425781 6.648438 -8.394531 6.765625 -8.34375 C 6.972656 -8.226562 7.078125 -7.925781 7.078125 -7.4375 C 7.078125 -6.894531 6.9375 -6.578125 6.65625 -6.484375 C 6.519531 -6.441406 6.316406 -6.421875 6.046875 -6.421875 L 2.5 -6.421875 L 2.5 -5.25 L 4.796875 -5.25 C 4.972656 -5.25 5.101562 -5.242188 5.1875 -5.234375 C 5.28125 -5.222656 5.382812 -5.1875 5.5 -5.125 C 5.707031 -5.019531 5.8125 -4.71875 5.8125 -4.21875 C 5.8125 -3.6875 5.664062 -3.375 5.375 -3.28125 C 5.238281 -3.226562 5.035156 -3.203125 4.765625 -3.203125 L 2.5 -3.203125 Z M 2.5 -2.046875 "/></g></g></g><g fill="#e27447" fill-opacity="1"><g transform="translate(15.009181, 24.151967)"><g><path d="M 5.671875 -4.28125 L 7.984375 -1.734375 C 8.253906 -1.441406 8.390625 -1.191406 8.390625 -0.984375 C 8.390625 -0.785156 8.238281 -0.550781 7.9375 -0.28125 C 7.644531 -0.0195312 7.394531 0.109375 7.1875 0.109375 C 6.976562 0.109375 6.742188 -0.0390625 6.484375 -0.34375 L 4.28125 -2.859375 L 2.09375 -0.34375 C 1.8125 -0.0390625 1.570312 0.109375 1.375 0.109375 C 1.175781 0.109375 0.925781 -0.0234375 0.625 -0.296875 C 0.320312 -0.566406 0.171875 -0.796875 0.171875 -0.984375 C 0.171875 -1.179688 0.304688 -1.429688 0.578125 -1.734375 L 2.890625 -4.28125 L 0.578125 -6.828125 C 0.304688 -7.117188 0.171875 -7.363281 0.171875 -7.5625 C 0.171875 -7.757812 0.320312 -7.992188 0.625 -8.265625 C 0.925781 -8.546875 1.175781 -8.6875 1.375 -8.6875 C 1.582031 -8.6875 1.820312 -8.53125 2.09375 -8.21875 L 4.28125 -5.703125 L 6.484375 -8.21875 C 6.753906 -8.53125 6.988281 -8.6875 7.1875 -8.6875 C 7.382812 -8.6875 7.632812 -8.550781 7.9375 -8.28125 C 8.238281 -8.007812 8.390625 -7.769531 8.390625 -7.5625 C 8.390625 -7.351562 8.253906 -7.109375 7.984375 -6.828125 Z M 5.671875 -4.28125 "/></g></g></g><g fill="#e27447" fill-opacity="1"><g transform="translate(23.565941, 24.151967)"><g><path d="M 5.984375 -8.15625 C 6.066406 -8.28125 6.179688 -8.363281 6.328125 -8.40625 C 6.472656 -8.445312 6.65625 -8.46875 6.875 -8.46875 C 7.09375 -8.46875 7.265625 -8.445312 7.390625 -8.40625 C 7.523438 -8.375 7.628906 -8.332031 7.703125 -8.28125 C 7.773438 -8.226562 7.828125 -8.144531 7.859375 -8.03125 C 7.898438 -7.90625 7.921875 -7.707031 7.921875 -7.4375 L 7.921875 -3.953125 C 7.921875 -2.929688 7.601562 -2.003906 6.96875 -1.171875 C 6.664062 -0.785156 6.269531 -0.46875 5.78125 -0.21875 C 5.300781 0.0195312 4.765625 0.140625 4.171875 0.140625 C 3.585938 0.140625 3.050781 0.0195312 2.5625 -0.21875 C 2.082031 -0.46875 1.691406 -0.796875 1.390625 -1.203125 C 0.773438 -2.015625 0.46875 -2.9375 0.46875 -3.96875 L 0.46875 -7.453125 C 0.46875 -7.628906 0.472656 -7.757812 0.484375 -7.84375 C 0.492188 -7.9375 0.53125 -8.039062 0.59375 -8.15625 C 0.65625 -8.28125 0.757812 -8.363281 0.90625 -8.40625 C 1.050781 -8.445312 1.242188 -8.46875 1.484375 -8.46875 C 1.734375 -8.46875 1.929688 -8.445312 2.078125 -8.40625 C 2.222656 -8.363281 2.320312 -8.28125 2.375 -8.15625 C 2.46875 -7.976562 2.515625 -7.738281 2.515625 -7.4375 L 2.515625 -3.96875 C 2.515625 -3.5 2.628906 -3.050781 2.859375 -2.625 C 2.972656 -2.414062 3.144531 -2.242188 3.375 -2.109375 C 3.613281 -1.984375 3.890625 -1.921875 4.203125 -1.921875 C 4.765625 -1.921875 5.179688 -2.125 5.453125 -2.53125 C 5.734375 -2.945312 5.875 -3.429688 5.875 -3.984375 L 5.875 -7.515625 C 5.875 -7.816406 5.910156 -8.03125 5.984375 -8.15625 Z M 5.984375 -8.15625 "/></g></g></g><g fill="#e27447" fill-opacity="1"><g transform="translate(31.949496, 24.151967)"><g><path d="M 5.34375 -7.859375 L 8.46875 -1.421875 C 8.59375 -1.160156 8.65625 -0.960938 8.65625 -0.828125 C 8.65625 -0.554688 8.429688 -0.304688 7.984375 -0.078125 C 7.722656 0.046875 7.515625 0.109375 7.359375 0.109375 C 7.210938 0.109375 7.09375 0.0703125 7 0 C 6.90625 -0.0625 6.835938 -0.128906 6.796875 -0.203125 C 6.753906 -0.285156 6.691406 -0.398438 6.609375 -0.546875 L 6.015625 -1.796875 L 2.8125 -1.796875 L 2.21875 -0.546875 C 2.132812 -0.398438 2.070312 -0.289062 2.03125 -0.21875 C 1.988281 -0.144531 1.921875 -0.0703125 1.828125 0 C 1.734375 0.0703125 1.609375 0.109375 1.453125 0.109375 C 1.304688 0.109375 1.101562 0.0390625 0.84375 -0.09375 C 0.394531 -0.3125 0.171875 -0.554688 0.171875 -0.828125 C 0.171875 -0.960938 0.238281 -1.160156 0.375 -1.421875 L 3.484375 -7.875 C 3.566406 -8.050781 3.695312 -8.191406 3.875 -8.296875 C 4.050781 -8.410156 4.234375 -8.46875 4.421875 -8.46875 C 4.835938 -8.46875 5.144531 -8.265625 5.34375 -7.859375 Z M 4.40625 -5.09375 L 3.65625 -3.515625 L 5.1875 -3.515625 Z M 4.40625 -5.09375 "/></g></g></g><g fill="#e27447" fill-opacity="1"><g transform="translate(40.783405, 24.151967)"><g><path d="M 2.5 -1.703125 L 5.640625 -1.703125 C 5.898438 -1.703125 6.085938 -1.671875 6.203125 -1.609375 C 6.316406 -1.554688 6.390625 -1.46875 6.421875 -1.34375 C 6.460938 -1.226562 6.484375 -1.066406 6.484375 -0.859375 C 6.484375 -0.648438 6.460938 -0.484375 6.421875 -0.359375 C 6.390625 -0.242188 6.328125 -0.160156 6.234375 -0.109375 C 6.085938 -0.0351562 5.890625 0 5.640625 0 L 1.484375 0 C 0.941406 0 0.625 -0.144531 0.53125 -0.4375 C 0.488281 -0.5625 0.46875 -0.757812 0.46875 -1.03125 L 0.46875 -7.453125 C 0.46875 -7.628906 0.472656 -7.757812 0.484375 -7.84375 C 0.492188 -7.9375 0.53125 -8.039062 0.59375 -8.15625 C 0.695312 -8.363281 0.992188 -8.46875 1.484375 -8.46875 C 2.023438 -8.46875 2.347656 -8.320312 2.453125 -8.03125 C 2.484375 -7.90625 2.5 -7.707031 2.5 -7.4375 Z M 2.5 -1.703125 "/></g></g></g></g></g></g></g></g></svg>