<svg xmlns="http://www.w3.org/2000/svg" xmlns:xlink="http://www.w3.org/1999/xlink" width="500" zoomAndPan="magnify" viewBox="0 0 375 374.999991" height="500" preserveAspectRatio="xMidYMid meet" version="1.0"><defs><g/><clipPath id="0f4996765c"><path d="M 283.929688 64.132812 L 301.308594 64.132812 L 301.308594 79.378906 L 283.929688 79.378906 Z M 283.929688 64.132812 " clip-rule="nonzero"/></clipPath><clipPath id="79e3ded57a"><path d="M 284.617188 66.617188 C 283.210938 68.933594 284.203125 71.191406 285.449219 72.386719 L 292.730469 79.378906 L 299.863281 72.414062 C 301.023438 71.125 301.464844 69.757812 301.21875 68.238281 C 300.878906 66.132812 299.144531 64.5 297 64.265625 C 295.6875 64.125 294.417969 64.496094 293.425781 65.320312 C 293.160156 65.539062 292.921875 65.789062 292.714844 66.058594 C 292.46875 65.75 292.179688 65.472656 291.851562 65.222656 C 290.710938 64.355469 289.261719 64.011719 287.867188 64.28125 C 286.546875 64.535156 285.363281 65.386719 284.617188 66.617188 Z M 284.617188 66.617188 " clip-rule="nonzero"/></clipPath><clipPath id="11b87e8ab0"><path d="M 0.929688 0.132812 L 18.308594 0.132812 L 18.308594 15.378906 L 0.929688 15.378906 Z M 0.929688 0.132812 " clip-rule="nonzero"/></clipPath><clipPath id="8fa9cba4d2"><path d="M 1.617188 2.617188 C 0.210938 4.933594 1.203125 7.191406 2.449219 8.386719 L 9.730469 15.378906 L 16.863281 8.414062 C 18.023438 7.125 18.464844 5.757812 18.21875 4.238281 C 17.878906 2.132812 16.144531 0.5 14 0.265625 C 12.6875 0.125 11.417969 0.496094 10.425781 1.320312 C 10.160156 1.539062 9.921875 1.789062 9.714844 2.058594 C 9.46875 1.75 9.179688 1.472656 8.851562 1.222656 C 7.710938 0.355469 6.261719 0.0117188 4.867188 0.28125 C 3.546875 0.535156 2.363281 1.386719 1.617188 2.617188 Z M 1.617188 2.617188 " clip-rule="nonzero"/></clipPath><clipPath id="e9fd4308a5"><rect x="0" width="19" y="0" height="16"/></clipPath><clipPath id="2b32593b6f"><path d="M 283 33 L 331.398438 33 L 331.398438 61 L 283 61 Z M 283 33 " clip-rule="nonzero"/></clipPath><clipPath id="9a5254912f"><rect x="0" width="49" y="0" height="28"/></clipPath><clipPath id="4781d6b8f2"><rect x="0" width="332" y="0" height="128"/></clipPath></defs><g transform="matrix(1, 0, 0, 1, 13, 113)"><g clip-path="url(#4781d6b8f2)"><g fill="#198189" fill-opacity="1"><g transform="translate(0.495006, 94.637569)"><g><path d="M 0.671875 -45.03125 C 0.671875 -45.820312 0.863281 -46.421875 1.25 -46.828125 C 1.632812 -47.242188 2.109375 -47.535156 2.671875 -47.703125 C 3.242188 -47.867188 3.804688 -47.957031 4.359375 -47.96875 C 4.921875 -47.988281 5.378906 -48 5.734375 -48 L 14.328125 -48 C 14.679688 -48 15.132812 -47.988281 15.6875 -47.96875 C 16.25 -47.957031 16.8125 -47.867188 17.375 -47.703125 C 17.945312 -47.535156 18.425781 -47.242188 18.8125 -46.828125 C 19.195312 -46.421875 19.390625 -45.820312 19.390625 -45.03125 C 19.390625 -44.15625 19.316406 -43.363281 19.171875 -42.65625 C 19.035156 -41.945312 18.847656 -41.226562 18.609375 -40.5 C 18.378906 -39.78125 18.132812 -38.976562 17.875 -38.09375 C 17.625 -37.207031 17.378906 -36.160156 17.140625 -34.953125 C 16.910156 -33.753906 16.722656 -32.316406 16.578125 -30.640625 C 16.429688 -28.960938 16.359375 -26.96875 16.359375 -24.65625 L 16.359375 -13.890625 C 16.359375 -13.003906 16.390625 -12.210938 16.453125 -11.515625 C 16.523438 -10.816406 16.695312 -10.269531 16.96875 -9.875 C 17.25 -9.488281 17.703125 -9.296875 18.328125 -9.296875 C 19.953125 -9.296875 21.390625 -9.546875 22.640625 -10.046875 C 23.898438 -10.546875 25.035156 -11.160156 26.046875 -11.890625 C 27.054688 -12.628906 27.976562 -13.359375 28.8125 -14.078125 C 29.644531 -14.804688 30.441406 -15.414062 31.203125 -15.90625 C 31.972656 -16.40625 32.757812 -16.65625 33.5625 -16.65625 C 34.363281 -16.65625 34.929688 -16.453125 35.265625 -16.046875 C 35.597656 -15.640625 35.789062 -15.140625 35.84375 -14.546875 C 35.894531 -13.960938 35.921875 -13.390625 35.921875 -12.828125 L 35.921875 -3.296875 C 35.921875 -2.316406 35.613281 -1.519531 35 -0.90625 C 34.394531 -0.300781 33.601562 0 32.625 0 L 5.203125 0 C 4.847656 0 4.421875 -0.00390625 3.921875 -0.015625 C 3.421875 -0.0234375 2.921875 -0.113281 2.421875 -0.28125 C 1.921875 -0.445312 1.503906 -0.734375 1.171875 -1.140625 C 0.835938 -1.554688 0.671875 -2.164062 0.671875 -2.96875 C 0.671875 -4.101562 0.769531 -5.140625 0.96875 -6.078125 C 1.164062 -7.023438 1.414062 -8.015625 1.71875 -9.046875 C 2.019531 -10.078125 2.320312 -11.273438 2.625 -12.640625 C 2.9375 -14.015625 3.191406 -15.664062 3.390625 -17.59375 C 3.597656 -19.53125 3.703125 -21.882812 3.703125 -24.65625 C 3.703125 -26.96875 3.628906 -28.960938 3.484375 -30.640625 C 3.335938 -32.316406 3.144531 -33.753906 2.90625 -34.953125 C 2.675781 -36.160156 2.429688 -37.207031 2.171875 -38.09375 C 1.921875 -38.976562 1.675781 -39.78125 1.4375 -40.5 C 1.207031 -41.226562 1.019531 -41.945312 0.875 -42.65625 C 0.738281 -43.363281 0.671875 -44.15625 0.671875 -45.03125 Z M 0.671875 -45.03125 "/></g></g></g><g fill="#198189" fill-opacity="1"><g transform="translate(34.682292, 94.637569)"><g><path d="M 0.328125 -10.46875 C 0.328125 -11.664062 0.398438 -12.6875 0.546875 -13.53125 C 0.691406 -14.375 0.851562 -15.148438 1.03125 -15.859375 C 1.207031 -16.578125 1.367188 -17.304688 1.515625 -18.046875 C 1.660156 -18.785156 1.734375 -19.65625 1.734375 -20.65625 C 1.734375 -21.632812 1.664062 -22.515625 1.53125 -23.296875 C 1.394531 -24.078125 1.234375 -24.816406 1.046875 -25.515625 C 0.859375 -26.210938 0.695312 -26.9375 0.5625 -27.6875 C 0.425781 -28.445312 0.359375 -29.296875 0.359375 -30.234375 C 0.359375 -31.023438 0.570312 -31.648438 1 -32.109375 C 1.425781 -32.566406 1.90625 -32.882812 2.4375 -33.0625 C 2.96875 -33.238281 3.390625 -33.328125 3.703125 -33.328125 L 10.4375 -33.328125 C 11.363281 -33.328125 12.125 -33.039062 12.71875 -32.46875 C 13.320312 -31.90625 13.789062 -31.1875 14.125 -30.3125 C 14.457031 -29.4375 14.6875 -28.503906 14.8125 -27.515625 C 14.9375 -26.523438 15 -25.609375 15 -24.765625 C 15 -23.078125 14.875 -21.566406 14.625 -20.234375 C 14.382812 -18.898438 14.101562 -17.703125 13.78125 -16.640625 C 13.457031 -15.585938 13.171875 -14.640625 12.921875 -13.796875 C 12.679688 -12.953125 12.5625 -12.164062 12.5625 -11.4375 C 12.5625 -10.65625 12.707031 -9.9375 13 -9.28125 C 13.289062 -8.625 13.753906 -8.296875 14.390625 -8.296875 C 15.148438 -8.296875 15.796875 -8.617188 16.328125 -9.265625 C 16.859375 -9.910156 17.289062 -10.753906 17.625 -11.796875 C 17.957031 -12.835938 18.203125 -13.957031 18.359375 -15.15625 C 18.515625 -16.363281 18.59375 -17.53125 18.59375 -18.65625 C 18.59375 -20.144531 18.535156 -21.453125 18.421875 -22.578125 C 18.316406 -23.703125 18.191406 -24.703125 18.046875 -25.578125 C 17.898438 -26.453125 17.769531 -27.273438 17.65625 -28.046875 C 17.550781 -28.816406 17.5 -29.585938 17.5 -30.359375 C 17.5 -31.160156 17.65625 -31.765625 17.96875 -32.171875 C 18.28125 -32.585938 18.664062 -32.878906 19.125 -33.046875 C 19.59375 -33.210938 20.070312 -33.300781 20.5625 -33.3125 C 21.050781 -33.320312 21.472656 -33.328125 21.828125 -33.328125 L 29.03125 -33.328125 C 29.382812 -33.328125 29.835938 -33.320312 30.390625 -33.3125 C 30.953125 -33.300781 31.515625 -33.210938 32.078125 -33.046875 C 32.640625 -32.878906 33.113281 -32.585938 33.5 -32.171875 C 33.894531 -31.765625 34.09375 -31.160156 34.09375 -30.359375 C 34.09375 -29.585938 33.941406 -28.71875 33.640625 -27.75 C 33.335938 -26.78125 32.992188 -25.6875 32.609375 -24.46875 C 32.222656 -23.257812 31.878906 -21.90625 31.578125 -20.40625 C 31.273438 -18.90625 31.125 -17.222656 31.125 -15.359375 C 31.125 -13.867188 31.273438 -12.53125 31.578125 -11.34375 C 31.878906 -10.15625 32.234375 -9.070312 32.640625 -8.09375 C 33.054688 -7.113281 33.410156 -6.207031 33.703125 -5.375 C 34.003906 -4.539062 34.15625 -3.738281 34.15625 -2.96875 C 34.15625 -2.164062 33.988281 -1.554688 33.65625 -1.140625 C 33.320312 -0.734375 32.90625 -0.445312 32.40625 -0.28125 C 31.90625 -0.113281 31.40625 -0.0234375 30.90625 -0.015625 C 30.40625 -0.00390625 29.976562 0 29.625 0 L 23.5 0 C 22.269531 0 21.296875 -0.195312 20.578125 -0.59375 C 19.859375 -1 19.3125 -1.65625 18.9375 -2.5625 C 18.664062 -2.050781 18.125 -1.5625 17.3125 -1.09375 C 16.5 -0.632812 15.582031 -0.253906 14.5625 0.046875 C 13.539062 0.347656 12.578125 0.5 11.671875 0.5 C 8.847656 0.5 6.609375 0.03125 4.953125 -0.90625 C 3.296875 -1.851562 2.109375 -3.148438 1.390625 -4.796875 C 0.679688 -6.441406 0.328125 -8.332031 0.328125 -10.46875 Z M 0.328125 -10.46875 "/></g></g></g><g fill="#198189" fill-opacity="1"><g transform="translate(66.437038, 94.637569)"><g><path d="M 0.671875 -34.46875 L 0.671875 -44.59375 C 0.671875 -45.613281 0.976562 -46.4375 1.59375 -47.0625 C 2.21875 -47.6875 3.039062 -48 4.0625 -48 L 34.125 -48 C 35.144531 -48 35.96875 -47.6875 36.59375 -47.0625 C 37.21875 -46.4375 37.53125 -45.613281 37.53125 -44.59375 L 37.53125 -34.46875 C 37.53125 -33.945312 37.347656 -33.53125 36.984375 -33.21875 C 36.628906 -32.914062 36.210938 -32.765625 35.734375 -32.765625 C 35.035156 -32.765625 34.390625 -32.894531 33.796875 -33.15625 C 33.210938 -33.425781 32.628906 -33.765625 32.046875 -34.171875 C 31.472656 -34.585938 30.878906 -34.992188 30.265625 -35.390625 C 29.660156 -35.796875 28.984375 -36.128906 28.234375 -36.390625 C 27.492188 -36.660156 26.660156 -36.796875 25.734375 -36.796875 L 25.234375 -36.796875 L 25.234375 -24 C 25.234375 -21.625 25.300781 -19.570312 25.4375 -17.84375 C 25.582031 -16.125 25.769531 -14.640625 26 -13.390625 C 26.238281 -12.148438 26.484375 -11.070312 26.734375 -10.15625 C 26.992188 -9.25 27.238281 -8.425781 27.46875 -7.6875 C 27.707031 -6.957031 27.898438 -6.226562 28.046875 -5.5 C 28.191406 -4.769531 28.265625 -3.945312 28.265625 -3.03125 C 28.265625 -2.207031 28.066406 -1.582031 27.671875 -1.15625 C 27.285156 -0.738281 26.804688 -0.445312 26.234375 -0.28125 C 25.671875 -0.113281 25.113281 -0.0234375 24.5625 -0.015625 C 24.007812 -0.00390625 23.554688 0 23.203125 0 L 14.59375 0 C 14.238281 0 13.78125 -0.00390625 13.21875 -0.015625 C 12.664062 -0.0234375 12.109375 -0.113281 11.546875 -0.28125 C 10.984375 -0.445312 10.503906 -0.738281 10.109375 -1.15625 C 9.722656 -1.582031 9.53125 -2.207031 9.53125 -3.03125 C 9.53125 -3.945312 9.601562 -4.769531 9.75 -5.5 C 9.894531 -6.226562 10.082031 -6.957031 10.3125 -7.6875 C 10.550781 -8.425781 10.796875 -9.25 11.046875 -10.15625 C 11.304688 -11.070312 11.550781 -12.148438 11.78125 -13.390625 C 12.007812 -14.640625 12.195312 -16.125 12.34375 -17.84375 C 12.488281 -19.570312 12.5625 -21.625 12.5625 -24 L 12.5625 -36.796875 L 12.46875 -36.796875 C 11.53125 -36.796875 10.6875 -36.660156 9.9375 -36.390625 C 9.195312 -36.128906 8.519531 -35.796875 7.90625 -35.390625 C 7.300781 -34.992188 6.707031 -34.585938 6.125 -34.171875 C 5.550781 -33.765625 4.96875 -33.425781 4.375 -33.15625 C 3.789062 -32.894531 3.15625 -32.765625 2.46875 -32.765625 C 1.976562 -32.765625 1.554688 -32.914062 1.203125 -33.21875 C 0.847656 -33.53125 0.671875 -33.945312 0.671875 -34.46875 Z M 0.671875 -34.46875 "/></g></g></g><g fill="#198189" fill-opacity="1"><g transform="translate(101.890579, 94.637569)"><g><path d="M 0.671875 -34.46875 L 0.671875 -44.59375 C 0.671875 -45.613281 0.976562 -46.4375 1.59375 -47.0625 C 2.21875 -47.6875 3.039062 -48 4.0625 -48 L 34.125 -48 C 35.144531 -48 35.96875 -47.6875 36.59375 -47.0625 C 37.21875 -46.4375 37.53125 -45.613281 37.53125 -44.59375 L 37.53125 -34.46875 C 37.53125 -33.945312 37.347656 -33.53125 36.984375 -33.21875 C 36.628906 -32.914062 36.210938 -32.765625 35.734375 -32.765625 C 35.035156 -32.765625 34.390625 -32.894531 33.796875 -33.15625 C 33.210938 -33.425781 32.628906 -33.765625 32.046875 -34.171875 C 31.472656 -34.585938 30.878906 -34.992188 30.265625 -35.390625 C 29.660156 -35.796875 28.984375 -36.128906 28.234375 -36.390625 C 27.492188 -36.660156 26.660156 -36.796875 25.734375 -36.796875 L 25.234375 -36.796875 L 25.234375 -24 C 25.234375 -21.625 25.300781 -19.570312 25.4375 -17.84375 C 25.582031 -16.125 25.769531 -14.640625 26 -13.390625 C 26.238281 -12.148438 26.484375 -11.070312 26.734375 -10.15625 C 26.992188 -9.25 27.238281 -8.425781 27.46875 -7.6875 C 27.707031 -6.957031 27.898438 -6.226562 28.046875 -5.5 C 28.191406 -4.769531 28.265625 -3.945312 28.265625 -3.03125 C 28.265625 -2.207031 28.066406 -1.582031 27.671875 -1.15625 C 27.285156 -0.738281 26.804688 -0.445312 26.234375 -0.28125 C 25.671875 -0.113281 25.113281 -0.0234375 24.5625 -0.015625 C 24.007812 -0.00390625 23.554688 0 23.203125 0 L 14.59375 0 C 14.238281 0 13.78125 -0.00390625 13.21875 -0.015625 C 12.664062 -0.0234375 12.109375 -0.113281 11.546875 -0.28125 C 10.984375 -0.445312 10.503906 -0.738281 10.109375 -1.15625 C 9.722656 -1.582031 9.53125 -2.207031 9.53125 -3.03125 C 9.53125 -3.945312 9.601562 -4.769531 9.75 -5.5 C 9.894531 -6.226562 10.082031 -6.957031 10.3125 -7.6875 C 10.550781 -8.425781 10.796875 -9.25 11.046875 -10.15625 C 11.304688 -11.070312 11.550781 -12.148438 11.78125 -13.390625 C 12.007812 -14.640625 12.195312 -16.125 12.34375 -17.84375 C 12.488281 -19.570312 12.5625 -21.625 12.5625 -24 L 12.5625 -36.796875 L 12.46875 -36.796875 C 11.53125 -36.796875 10.6875 -36.660156 9.9375 -36.390625 C 9.195312 -36.128906 8.519531 -35.796875 7.90625 -35.390625 C 7.300781 -34.992188 6.707031 -34.585938 6.125 -34.171875 C 5.550781 -33.765625 4.96875 -33.425781 4.375 -33.15625 C 3.789062 -32.894531 3.15625 -32.765625 2.46875 -32.765625 C 1.976562 -32.765625 1.554688 -32.914062 1.203125 -33.21875 C 0.847656 -33.53125 0.671875 -33.945312 0.671875 -34.46875 Z M 0.671875 -34.46875 "/></g></g></g><g fill="#630a79" fill-opacity="1"><g transform="translate(143.000844, 91.6962)"><g><path d="M 8.984375 -14.25 L 8.984375 -12.96875 C 8.984375 -10.957031 9.472656 -9.390625 10.453125 -8.265625 C 11.441406 -7.140625 12.738281 -6.578125 14.34375 -6.578125 C 16.007812 -6.578125 17.734375 -6.96875 19.515625 -7.75 C 21.304688 -8.539062 23.085938 -9.582031 24.859375 -10.875 C 26.628906 -12.164062 28.789062 -13.898438 31.34375 -16.078125 L 31.34375 -12.96875 C 27.5 -8.34375 23.890625 -4.796875 20.515625 -2.328125 C 17.148438 0.140625 13.734375 1.375 10.265625 1.375 C 7.234375 1.375 4.832031 0.203125 3.0625 -2.140625 C 1.289062 -4.492188 0.40625 -7.710938 0.40625 -11.796875 C 0.40625 -15.367188 1.238281 -18.609375 2.90625 -21.515625 C 4.570312 -24.421875 7.296875 -27.492188 11.078125 -30.734375 C 13.660156 -32.941406 16.226562 -34.609375 18.78125 -35.734375 C 21.332031 -36.859375 23.613281 -37.421875 25.625 -37.421875 C 27.226562 -37.421875 28.492188 -37.050781 29.421875 -36.3125 C 30.359375 -35.582031 30.828125 -34.488281 30.828125 -33.03125 C 30.828125 -30.882812 30.023438 -28.75 28.421875 -26.625 C 26.828125 -24.5 24.390625 -22.390625 21.109375 -20.296875 C 17.828125 -18.203125 13.785156 -16.1875 8.984375 -14.25 Z M 9.5 -17.5625 C 12.5625 -18.75 15.179688 -20.226562 17.359375 -22 C 19.535156 -23.769531 21.140625 -25.460938 22.171875 -27.078125 C 23.210938 -28.691406 23.734375 -29.875 23.734375 -30.625 C 23.734375 -31.40625 23.378906 -31.796875 22.671875 -31.796875 C 22.054688 -31.796875 21.054688 -31.40625 19.671875 -30.625 C 18.296875 -29.84375 16.898438 -28.820312 15.484375 -27.5625 C 14.078125 -26.300781 12.8125 -24.820312 11.6875 -23.125 C 10.5625 -21.425781 9.832031 -19.570312 9.5 -17.5625 Z M 9.5 -17.5625 "/></g></g></g><g fill="#630a79" fill-opacity="1"><g transform="translate(173.735639, 91.6962)"><g><path d="M 0.3125 -12.15625 L 0.3125 -15.46875 C 2.144531 -17.644531 3.539062 -19.5 4.5 -21.03125 C 3.40625 -21.40625 2.609375 -21.863281 2.109375 -22.40625 C 1.617188 -22.957031 1.375 -23.773438 1.375 -24.859375 C 1.375 -26.085938 1.882812 -27.632812 2.90625 -29.5 C 3.925781 -31.375 5.1875 -33.128906 6.6875 -34.765625 C 8.1875 -36.398438 9.546875 -37.453125 10.765625 -37.921875 C 11.242188 -38.160156 11.707031 -38.28125 12.15625 -38.28125 C 12.832031 -38.28125 13.171875 -37.957031 13.171875 -37.3125 C 13.171875 -36.738281 12.644531 -35.566406 11.59375 -33.796875 C 18.601562 -34.878906 23.023438 -35.421875 24.859375 -35.421875 C 25.578125 -35.421875 26.070312 -35.351562 26.34375 -35.21875 C 26.914062 -34.914062 27.390625 -34.203125 27.765625 -33.078125 C 28.140625 -31.953125 28.328125 -30.828125 28.328125 -29.703125 C 28.328125 -28.992188 28.007812 -28.222656 27.375 -27.390625 C 26.75 -26.554688 25.671875 -25.335938 24.140625 -23.734375 C 22.335938 -21.796875 20.820312 -19.6875 19.59375 -17.40625 C 18.375 -15.125 17.765625 -13.40625 17.765625 -12.25 C 17.765625 -10.65625 18.75 -9.859375 20.71875 -9.859375 C 22.800781 -9.859375 26.410156 -11.96875 31.546875 -16.1875 L 31.546875 -12.765625 C 28.722656 -9.804688 26.390625 -7.472656 24.546875 -5.765625 C 22.710938 -4.066406 21.007812 -2.710938 19.4375 -1.703125 C 17.875 -0.703125 16.484375 -0.203125 15.265625 -0.203125 C 13.835938 -0.203125 12.644531 -0.859375 11.6875 -2.171875 C 10.738281 -3.484375 10.265625 -5.378906 10.265625 -7.859375 C 10.265625 -9.328125 10.632812 -10.992188 11.375 -12.859375 C 12.125 -14.734375 13.222656 -16.765625 14.671875 -18.953125 C 16.117188 -21.148438 17.742188 -23.34375 19.546875 -25.53125 C 18.597656 -25.320312 17.523438 -25.101562 16.328125 -24.875 C 15.140625 -24.65625 13.878906 -24.425781 12.546875 -24.1875 C 11.222656 -23.957031 10.207031 -23.773438 9.5 -23.640625 C 7.382812 -19.421875 4.320312 -15.59375 0.3125 -12.15625 Z M 0.3125 -12.15625 "/></g></g></g><g fill="#630a79" fill-opacity="1"><g transform="translate(204.470434, 91.6962)"><g><path d="M 33.640625 -16.1875 L 33.640625 -12.765625 C 31.390625 -10.722656 29.582031 -9.359375 28.21875 -8.671875 C 26.863281 -7.992188 24.910156 -7.722656 22.359375 -7.859375 C 17.929688 -2.617188 14.035156 0 10.671875 0 C 8.765625 0 7.023438 -0.628906 5.453125 -1.890625 C 3.890625 -3.148438 2.640625 -4.867188 1.703125 -7.046875 C 0.773438 -9.222656 0.3125 -11.65625 0.3125 -14.34375 C 0.3125 -16.519531 1.03125 -18.9375 2.46875 -21.59375 C 3.914062 -24.25 5.785156 -26.722656 8.078125 -29.015625 C 10.378906 -31.316406 12.835938 -33.171875 15.453125 -34.578125 C 18.078125 -35.992188 20.515625 -36.703125 22.765625 -36.703125 C 24.367188 -36.703125 25.628906 -36.453125 26.546875 -35.953125 C 27.460938 -35.460938 27.921875 -34.773438 27.921875 -33.890625 C 27.921875 -33.210938 27.53125 -32.429688 26.75 -31.546875 C 28.039062 -31.273438 28.925781 -30.820312 29.40625 -30.1875 C 29.882812 -29.5625 30.125 -28.414062 30.125 -26.75 C 30.125 -25.113281 29.738281 -23.050781 28.96875 -20.5625 C 28.207031 -18.082031 27.160156 -15.753906 25.828125 -13.578125 L 26.75 -12.65625 L 27.515625 -12.65625 C 28.097656 -12.65625 28.664062 -12.800781 29.21875 -13.09375 C 29.78125 -13.382812 30.28125 -13.691406 30.71875 -14.015625 C 31.164062 -14.335938 32.140625 -15.0625 33.640625 -16.1875 Z M 23.125 -29.609375 C 20.300781 -27.910156 17.882812 -26.367188 15.875 -24.984375 C 13.863281 -23.609375 12.160156 -22.210938 10.765625 -20.796875 C 9.367188 -19.390625 8.4375 -17.972656 7.96875 -16.546875 C 7.113281 -12.734375 6.6875 -10.671875 6.6875 -10.359375 C 6.6875 -8.117188 8.253906 -7 11.390625 -7 C 12.847656 -7 15.296875 -8.253906 18.734375 -10.765625 C 18.148438 -12.367188 17.859375 -13.898438 17.859375 -15.359375 C 17.859375 -17.503906 18.300781 -19.691406 19.1875 -21.921875 C 20.070312 -24.148438 21.382812 -26.710938 23.125 -29.609375 Z M 23.125 -29.609375 "/></g></g></g><g fill="#630a79" fill-opacity="1"><g transform="translate(237.400228, 91.6962)"><g><path d="M 0.609375 -14.65625 L 0.609375 -15.875 C 9.390625 -25.132812 15.429688 -31.617188 18.734375 -35.328125 C 19.484375 -39.515625 21.285156 -41.609375 24.140625 -41.609375 C 24.859375 -41.609375 25.625 -41.398438 26.4375 -40.984375 L 26.75 -40.015625 C 26.613281 -39.609375 26.546875 -39.03125 26.546875 -38.28125 C 26.546875 -37.632812 26.789062 -36.4375 27.28125 -34.6875 C 27.78125 -32.9375 28.164062 -31.460938 28.4375 -30.265625 C 28.707031 -29.078125 28.84375 -27.734375 28.84375 -26.234375 C 28.84375 -23.992188 28.332031 -21.84375 27.3125 -19.78125 C 26.289062 -17.71875 24.804688 -15.742188 22.859375 -13.859375 C 20.921875 -11.972656 18.421875 -10.039062 15.359375 -8.0625 C 16.585938 -7.863281 17.5625 -7.765625 18.28125 -7.765625 C 19.675781 -7.765625 21.179688 -8.113281 22.796875 -8.8125 C 24.410156 -9.507812 26.054688 -10.441406 27.734375 -11.609375 C 29.421875 -12.785156 31.390625 -14.3125 33.640625 -16.1875 L 33.640625 -12.765625 C 29.285156 -8.503906 25.390625 -5.273438 21.953125 -3.078125 C 18.515625 -0.890625 15.550781 0.203125 13.0625 0.203125 C 9.863281 0.203125 6.90625 -1.15625 4.1875 -3.875 C 2.582031 -5.507812 1.582031 -7.078125 1.1875 -8.578125 C 0.800781 -10.078125 0.609375 -12.101562 0.609375 -14.65625 Z M 19.65625 -22.46875 L 18.734375 -29.921875 C 16.617188 -27.535156 12.109375 -22.957031 5.203125 -16.1875 C 7.242188 -15.738281 8.640625 -15.140625 9.390625 -14.390625 C 10.140625 -13.640625 11.195312 -12.195312 12.5625 -10.0625 C 14.875 -11.007812 16.648438 -12.304688 17.890625 -13.953125 C 19.128906 -15.609375 19.75 -17.863281 19.75 -20.71875 C 19.75 -21.0625 19.738281 -21.367188 19.71875 -21.640625 C 19.707031 -21.910156 19.6875 -22.1875 19.65625 -22.46875 Z M 19.65625 -22.46875 "/></g></g></g><g clip-path="url(#0f4996765c)"><g clip-path="url(#79e3ded57a)"><g transform="matrix(1, 0, 0, 1, 283, 64)"><g clip-path="url(#e9fd4308a5)"><g clip-path="url(#11b87e8ab0)"><g clip-path="url(#8fa9cba4d2)"><path fill="#630a79" d="M 0.929688 0.191406 L 18.308594 0.191406 L 18.308594 15.378906 L 0.929688 15.378906 Z M 0.929688 0.191406 " fill-opacity="1" fill-rule="nonzero"/></g></g></g></g></g></g><g clip-path="url(#2b32593b6f)"><g transform="matrix(1, 0, 0, 1, 283, 33)"><g clip-path="url(#9a5254912f)"><g fill="#198189" fill-opacity="1"><g transform="translate(0.929731, 12.427882)"><g><path d="M 0.59375 -1.1875 C 0.394531 -1.4375 0.296875 -1.660156 0.296875 -1.859375 C 0.296875 -2.054688 0.457031 -2.316406 0.78125 -2.640625 C 0.976562 -2.828125 1.179688 -2.921875 1.390625 -2.921875 C 1.609375 -2.921875 1.910156 -2.726562 2.296875 -2.34375 C 2.410156 -2.207031 2.566406 -2.078125 2.765625 -1.953125 C 2.960938 -1.835938 3.148438 -1.78125 3.328125 -1.78125 C 4.046875 -1.78125 4.40625 -2.070312 4.40625 -2.65625 C 4.40625 -2.832031 4.304688 -2.976562 4.109375 -3.09375 C 3.910156 -3.21875 3.660156 -3.304688 3.359375 -3.359375 C 3.066406 -3.421875 2.75 -3.507812 2.40625 -3.625 C 2.070312 -3.75 1.757812 -3.890625 1.46875 -4.046875 C 1.175781 -4.210938 0.929688 -4.46875 0.734375 -4.8125 C 0.535156 -5.164062 0.4375 -5.59375 0.4375 -6.09375 C 0.4375 -6.769531 0.6875 -7.359375 1.1875 -7.859375 C 1.695312 -8.367188 2.390625 -8.625 3.265625 -8.625 C 3.722656 -8.625 4.144531 -8.5625 4.53125 -8.4375 C 4.914062 -8.320312 5.179688 -8.203125 5.328125 -8.078125 L 5.609375 -7.859375 C 5.847656 -7.640625 5.96875 -7.453125 5.96875 -7.296875 C 5.96875 -7.140625 5.878906 -6.925781 5.703125 -6.65625 C 5.429688 -6.269531 5.160156 -6.078125 4.890625 -6.078125 C 4.722656 -6.078125 4.519531 -6.15625 4.28125 -6.3125 C 4.257812 -6.320312 4.210938 -6.359375 4.140625 -6.421875 C 4.078125 -6.484375 4.019531 -6.535156 3.96875 -6.578125 C 3.8125 -6.679688 3.601562 -6.734375 3.34375 -6.734375 C 3.09375 -6.734375 2.882812 -6.671875 2.71875 -6.546875 C 2.5625 -6.429688 2.484375 -6.265625 2.484375 -6.046875 C 2.484375 -5.835938 2.578125 -5.664062 2.765625 -5.53125 C 2.960938 -5.40625 3.207031 -5.316406 3.5 -5.265625 C 3.800781 -5.222656 4.125 -5.148438 4.46875 -5.046875 C 4.8125 -4.953125 5.128906 -4.835938 5.421875 -4.703125 C 5.722656 -4.566406 5.96875 -4.328125 6.15625 -3.984375 C 6.351562 -3.640625 6.453125 -3.210938 6.453125 -2.703125 C 6.453125 -2.203125 6.351562 -1.757812 6.15625 -1.375 C 5.957031 -1 5.695312 -0.707031 5.375 -0.5 C 4.75 -0.09375 4.082031 0.109375 3.375 0.109375 C 3.007812 0.109375 2.664062 0.0664062 2.34375 -0.015625 C 2.019531 -0.109375 1.753906 -0.21875 1.546875 -0.34375 C 1.140625 -0.59375 0.851562 -0.832031 0.6875 -1.0625 Z M 0.59375 -1.1875 "/></g></g></g><g fill="#198189" fill-opacity="1"><g transform="translate(7.679105, 12.427882)"><g><path d="M 2.515625 -2.046875 L 6.078125 -2.046875 C 6.253906 -2.046875 6.382812 -2.039062 6.46875 -2.03125 C 6.5625 -2.019531 6.664062 -1.984375 6.78125 -1.921875 C 6.988281 -1.816406 7.09375 -1.515625 7.09375 -1.015625 C 7.09375 -0.472656 6.953125 -0.15625 6.671875 -0.0625 C 6.535156 -0.0195312 6.332031 0 6.0625 0 L 1.484375 0 C 0.941406 0 0.625 -0.144531 0.53125 -0.4375 C 0.488281 -0.5625 0.46875 -0.757812 0.46875 -1.03125 L 0.46875 -7.46875 C 0.46875 -7.863281 0.539062 -8.128906 0.6875 -8.265625 C 0.832031 -8.410156 1.109375 -8.484375 1.515625 -8.484375 L 6.078125 -8.484375 C 6.253906 -8.484375 6.382812 -8.476562 6.46875 -8.46875 C 6.5625 -8.457031 6.664062 -8.421875 6.78125 -8.359375 C 6.988281 -8.253906 7.09375 -7.953125 7.09375 -7.453125 C 7.09375 -6.910156 6.953125 -6.59375 6.671875 -6.5 C 6.535156 -6.457031 6.332031 -6.4375 6.0625 -6.4375 L 2.515625 -6.4375 L 2.515625 -5.265625 L 4.8125 -5.265625 C 4.988281 -5.265625 5.117188 -5.257812 5.203125 -5.25 C 5.296875 -5.238281 5.398438 -5.203125 5.515625 -5.140625 C 5.722656 -5.035156 5.828125 -4.734375 5.828125 -4.234375 C 5.828125 -3.691406 5.679688 -3.375 5.390625 -3.28125 C 5.253906 -3.238281 5.050781 -3.21875 4.78125 -3.21875 L 2.515625 -3.21875 Z M 2.515625 -2.046875 "/></g></g></g><g fill="#198189" fill-opacity="1"><g transform="translate(15.06521, 12.427882)"><g><path d="M 5.6875 -4.296875 L 8.015625 -1.734375 C 8.273438 -1.441406 8.40625 -1.191406 8.40625 -0.984375 C 8.40625 -0.785156 8.253906 -0.550781 7.953125 -0.28125 C 7.660156 -0.0195312 7.410156 0.109375 7.203125 0.109375 C 7.003906 0.109375 6.769531 -0.0390625 6.5 -0.34375 L 4.296875 -2.875 L 2.09375 -0.34375 C 1.8125 -0.0390625 1.570312 0.109375 1.375 0.109375 C 1.1875 0.109375 0.9375 -0.0234375 0.625 -0.296875 C 0.320312 -0.566406 0.171875 -0.796875 0.171875 -0.984375 C 0.171875 -1.179688 0.304688 -1.429688 0.578125 -1.734375 L 2.90625 -4.296875 L 0.578125 -6.859375 C 0.304688 -7.140625 0.171875 -7.378906 0.171875 -7.578125 C 0.171875 -7.785156 0.320312 -8.023438 0.625 -8.296875 C 0.925781 -8.566406 1.175781 -8.703125 1.375 -8.703125 C 1.582031 -8.703125 1.820312 -8.550781 2.09375 -8.25 L 4.296875 -5.71875 L 6.5 -8.25 C 6.769531 -8.550781 7.003906 -8.703125 7.203125 -8.703125 C 7.398438 -8.703125 7.648438 -8.566406 7.953125 -8.296875 C 8.253906 -8.023438 8.40625 -7.785156 8.40625 -7.578125 C 8.40625 -7.367188 8.273438 -7.128906 8.015625 -6.859375 Z M 5.6875 -4.296875 "/></g></g></g><g fill="#198189" fill-opacity="1"><g transform="translate(23.643743, 12.427882)"><g><path d="M 6 -8.171875 C 6.082031 -8.296875 6.195312 -8.378906 6.34375 -8.421875 C 6.488281 -8.472656 6.671875 -8.5 6.890625 -8.5 C 7.109375 -8.5 7.285156 -8.476562 7.421875 -8.4375 C 7.554688 -8.394531 7.65625 -8.347656 7.71875 -8.296875 C 7.789062 -8.242188 7.84375 -8.164062 7.875 -8.0625 C 7.914062 -7.925781 7.9375 -7.722656 7.9375 -7.453125 L 7.9375 -3.953125 C 7.9375 -2.941406 7.625 -2.019531 7 -1.1875 C 6.6875 -0.789062 6.285156 -0.46875 5.796875 -0.21875 C 5.316406 0.0195312 4.78125 0.140625 4.1875 0.140625 C 3.59375 0.140625 3.054688 0.015625 2.578125 -0.234375 C 2.097656 -0.484375 1.707031 -0.804688 1.40625 -1.203125 C 0.78125 -2.023438 0.46875 -2.953125 0.46875 -3.984375 L 0.46875 -7.46875 C 0.46875 -7.65625 0.472656 -7.789062 0.484375 -7.875 C 0.492188 -7.96875 0.53125 -8.070312 0.59375 -8.1875 C 0.65625 -8.300781 0.757812 -8.378906 0.90625 -8.421875 C 1.050781 -8.472656 1.242188 -8.5 1.484375 -8.5 C 1.734375 -8.5 1.929688 -8.472656 2.078125 -8.421875 C 2.222656 -8.378906 2.328125 -8.300781 2.390625 -8.1875 C 2.484375 -8.007812 2.53125 -7.765625 2.53125 -7.453125 L 2.53125 -3.984375 C 2.53125 -3.515625 2.644531 -3.066406 2.875 -2.640625 C 2.988281 -2.421875 3.160156 -2.242188 3.390625 -2.109375 C 3.617188 -1.984375 3.894531 -1.921875 4.21875 -1.921875 C 4.78125 -1.921875 5.195312 -2.128906 5.46875 -2.546875 C 5.75 -2.960938 5.890625 -3.445312 5.890625 -4 L 5.890625 -7.53125 C 5.890625 -7.832031 5.925781 -8.046875 6 -8.171875 Z M 6 -8.171875 "/></g></g></g><g fill="#198189" fill-opacity="1"><g transform="translate(32.04863, 12.427882)"><g><path d="M 5.359375 -7.890625 L 8.484375 -1.421875 C 8.617188 -1.160156 8.6875 -0.960938 8.6875 -0.828125 C 8.6875 -0.554688 8.460938 -0.304688 8.015625 -0.078125 C 7.753906 0.046875 7.546875 0.109375 7.390625 0.109375 C 7.242188 0.109375 7.117188 0.0703125 7.015625 0 C 6.921875 -0.0625 6.851562 -0.128906 6.8125 -0.203125 C 6.769531 -0.285156 6.710938 -0.40625 6.640625 -0.5625 L 6.03125 -1.8125 L 2.828125 -1.8125 L 2.21875 -0.5625 C 2.144531 -0.40625 2.085938 -0.289062 2.046875 -0.21875 C 2.003906 -0.144531 1.929688 -0.0703125 1.828125 0 C 1.734375 0.0703125 1.609375 0.109375 1.453125 0.109375 C 1.304688 0.109375 1.101562 0.0390625 0.84375 -0.09375 C 0.394531 -0.3125 0.171875 -0.554688 0.171875 -0.828125 C 0.171875 -0.960938 0.238281 -1.160156 0.375 -1.421875 L 3.5 -7.890625 C 3.582031 -8.066406 3.707031 -8.207031 3.875 -8.3125 C 4.050781 -8.425781 4.238281 -8.484375 4.4375 -8.484375 C 4.851562 -8.484375 5.160156 -8.285156 5.359375 -7.890625 Z M 4.421875 -5.109375 L 3.65625 -3.515625 L 5.203125 -3.515625 Z M 4.421875 -5.109375 "/></g></g></g><g fill="#198189" fill-opacity="1"><g transform="translate(40.905018, 12.427882)"><g><path d="M 2.515625 -1.71875 L 5.65625 -1.71875 C 5.914062 -1.71875 6.101562 -1.6875 6.21875 -1.625 C 6.332031 -1.570312 6.40625 -1.484375 6.4375 -1.359375 C 6.476562 -1.234375 6.5 -1.066406 6.5 -0.859375 C 6.5 -0.660156 6.476562 -0.5 6.4375 -0.375 C 6.40625 -0.25 6.34375 -0.160156 6.25 -0.109375 C 6.101562 -0.0351562 5.90625 0 5.65625 0 L 1.484375 0 C 0.941406 0 0.625 -0.144531 0.53125 -0.4375 C 0.488281 -0.5625 0.46875 -0.757812 0.46875 -1.03125 L 0.46875 -7.46875 C 0.46875 -7.644531 0.472656 -7.773438 0.484375 -7.859375 C 0.492188 -7.953125 0.53125 -8.054688 0.59375 -8.171875 C 0.695312 -8.378906 1 -8.484375 1.5 -8.484375 C 2.03125 -8.484375 2.347656 -8.34375 2.453125 -8.0625 C 2.492188 -7.925781 2.515625 -7.722656 2.515625 -7.453125 Z M 2.515625 -1.71875 "/></g></g></g><g fill="#198189" fill-opacity="1"><g transform="translate(0.929731, 24.969513)"><g><path d="M 5.703125 -8.171875 C 5.765625 -8.285156 5.867188 -8.363281 6.015625 -8.40625 C 6.160156 -8.457031 6.34375 -8.484375 6.5625 -8.484375 C 6.789062 -8.484375 6.972656 -8.460938 7.109375 -8.421875 C 7.242188 -8.390625 7.34375 -8.34375 7.40625 -8.28125 C 7.476562 -8.226562 7.535156 -8.15625 7.578125 -8.0625 C 7.609375 -7.925781 7.625 -7.722656 7.625 -7.453125 L 7.625 -1.03125 C 7.625 -0.851562 7.617188 -0.71875 7.609375 -0.625 C 7.597656 -0.539062 7.5625 -0.441406 7.5 -0.328125 C 7.394531 -0.117188 7.09375 -0.015625 6.59375 -0.015625 C 6.050781 -0.015625 5.738281 -0.15625 5.65625 -0.4375 C 5.601562 -0.570312 5.578125 -0.773438 5.578125 -1.046875 L 5.578125 -3.390625 L 2.515625 -3.390625 L 2.515625 -1.03125 C 2.515625 -0.851562 2.507812 -0.71875 2.5 -0.625 C 2.488281 -0.539062 2.453125 -0.441406 2.390625 -0.328125 C 2.273438 -0.117188 1.972656 -0.015625 1.484375 -0.015625 C 0.941406 -0.015625 0.625 -0.15625 0.53125 -0.4375 C 0.488281 -0.570312 0.46875 -0.773438 0.46875 -1.046875 L 0.46875 -7.46875 C 0.46875 -7.644531 0.472656 -7.773438 0.484375 -7.859375 C 0.492188 -7.953125 0.53125 -8.054688 0.59375 -8.171875 C 0.695312 -8.378906 1 -8.484375 1.5 -8.484375 C 2.03125 -8.484375 2.347656 -8.34375 2.453125 -8.0625 C 2.492188 -7.925781 2.515625 -7.722656 2.515625 -7.453125 L 2.515625 -5.09375 L 5.578125 -5.09375 L 5.578125 -7.46875 C 5.578125 -7.644531 5.582031 -7.773438 5.59375 -7.859375 C 5.601562 -7.953125 5.640625 -8.054688 5.703125 -8.171875 Z M 5.703125 -8.171875 "/></g></g></g><g fill="#198189" fill-opacity="1"><g transform="translate(9.022037, 24.969513)"><g><path d="M 2.515625 -2.046875 L 6.078125 -2.046875 C 6.253906 -2.046875 6.382812 -2.039062 6.46875 -2.03125 C 6.5625 -2.019531 6.664062 -1.984375 6.78125 -1.921875 C 6.988281 -1.816406 7.09375 -1.515625 7.09375 -1.015625 C 7.09375 -0.472656 6.953125 -0.15625 6.671875 -0.0625 C 6.535156 -0.0195312 6.332031 0 6.0625 0 L 1.484375 0 C 0.941406 0 0.625 -0.144531 0.53125 -0.4375 C 0.488281 -0.5625 0.46875 -0.757812 0.46875 -1.03125 L 0.46875 -7.46875 C 0.46875 -7.863281 0.539062 -8.128906 0.6875 -8.265625 C 0.832031 -8.410156 1.109375 -8.484375 1.515625 -8.484375 L 6.078125 -8.484375 C 6.253906 -8.484375 6.382812 -8.476562 6.46875 -8.46875 C 6.5625 -8.457031 6.664062 -8.421875 6.78125 -8.359375 C 6.988281 -8.253906 7.09375 -7.953125 7.09375 -7.453125 C 7.09375 -6.910156 6.953125 -6.59375 6.671875 -6.5 C 6.535156 -6.457031 6.332031 -6.4375 6.0625 -6.4375 L 2.515625 -6.4375 L 2.515625 -5.265625 L 4.8125 -5.265625 C 4.988281 -5.265625 5.117188 -5.257812 5.203125 -5.25 C 5.296875 -5.238281 5.398438 -5.203125 5.515625 -5.140625 C 5.722656 -5.035156 5.828125 -4.734375 5.828125 -4.234375 C 5.828125 -3.691406 5.679688 -3.375 5.390625 -3.28125 C 5.253906 -3.238281 5.050781 -3.21875 4.78125 -3.21875 L 2.515625 -3.21875 Z M 2.515625 -2.046875 "/></g></g></g><g fill="#198189" fill-opacity="1"><g transform="translate(16.408143, 24.969513)"><g><path d="M 2.515625 -1.71875 L 5.65625 -1.71875 C 5.914062 -1.71875 6.101562 -1.6875 6.21875 -1.625 C 6.332031 -1.570312 6.40625 -1.484375 6.4375 -1.359375 C 6.476562 -1.234375 6.5 -1.066406 6.5 -0.859375 C 6.5 -0.660156 6.476562 -0.5 6.4375 -0.375 C 6.40625 -0.25 6.34375 -0.160156 6.25 -0.109375 C 6.101562 -0.0351562 5.90625 0 5.65625 0 L 1.484375 0 C 0.941406 0 0.625 -0.144531 0.53125 -0.4375 C 0.488281 -0.5625 0.46875 -0.757812 0.46875 -1.03125 L 0.46875 -7.46875 C 0.46875 -7.644531 0.472656 -7.773438 0.484375 -7.859375 C 0.492188 -7.953125 0.53125 -8.054688 0.59375 -8.171875 C 0.695312 -8.378906 1 -8.484375 1.5 -8.484375 C 2.03125 -8.484375 2.347656 -8.34375 2.453125 -8.0625 C 2.492188 -7.925781 2.515625 -7.722656 2.515625 -7.453125 Z M 2.515625 -1.71875 "/></g></g></g><g fill="#198189" fill-opacity="1"><g transform="translate(23.203828, 24.969513)"><g><path d="M 1.015625 -8.5 L 7.453125 -8.5 C 7.703125 -8.5 7.882812 -8.46875 8 -8.40625 C 8.113281 -8.351562 8.191406 -8.265625 8.234375 -8.140625 C 8.273438 -8.015625 8.296875 -7.851562 8.296875 -7.65625 C 8.296875 -7.457031 8.273438 -7.296875 8.234375 -7.171875 C 8.191406 -7.054688 8.125 -6.972656 8.03125 -6.921875 C 7.894531 -6.847656 7.695312 -6.8125 7.4375 -6.8125 L 5.234375 -6.8125 L 5.234375 -1 C 5.234375 -0.820312 5.226562 -0.6875 5.21875 -0.59375 C 5.207031 -0.507812 5.171875 -0.410156 5.109375 -0.296875 C 5.054688 -0.191406 4.953125 -0.113281 4.796875 -0.0625 C 4.648438 -0.0195312 4.457031 0 4.21875 0 C 3.976562 0 3.785156 -0.0195312 3.640625 -0.0625 C 3.503906 -0.113281 3.40625 -0.191406 3.34375 -0.296875 C 3.289062 -0.410156 3.257812 -0.507812 3.25 -0.59375 C 3.238281 -0.6875 3.234375 -0.820312 3.234375 -1 L 3.234375 -6.8125 L 1 -6.8125 C 0.757812 -6.8125 0.582031 -6.84375 0.46875 -6.90625 C 0.351562 -6.96875 0.273438 -7.054688 0.234375 -7.171875 C 0.191406 -7.296875 0.171875 -7.457031 0.171875 -7.65625 C 0.171875 -7.863281 0.191406 -8.023438 0.234375 -8.140625 C 0.273438 -8.265625 0.335938 -8.347656 0.421875 -8.390625 C 0.566406 -8.460938 0.765625 -8.5 1.015625 -8.5 Z M 1.015625 -8.5 "/></g></g></g><g fill="#198189" fill-opacity="1"><g transform="translate(31.666597, 24.969513)"><g><path d="M 5.703125 -8.171875 C 5.765625 -8.285156 5.867188 -8.363281 6.015625 -8.40625 C 6.160156 -8.457031 6.34375 -8.484375 6.5625 -8.484375 C 6.789062 -8.484375 6.972656 -8.460938 7.109375 -8.421875 C 7.242188 -8.390625 7.34375 -8.34375 7.40625 -8.28125 C 7.476562 -8.226562 7.535156 -8.15625 7.578125 -8.0625 C 7.609375 -7.925781 7.625 -7.722656 7.625 -7.453125 L 7.625 -1.03125 C 7.625 -0.851562 7.617188 -0.71875 7.609375 -0.625 C 7.597656 -0.539062 7.5625 -0.441406 7.5 -0.328125 C 7.394531 -0.117188 7.09375 -0.015625 6.59375 -0.015625 C 6.050781 -0.015625 5.738281 -0.15625 5.65625 -0.4375 C 5.601562 -0.570312 5.578125 -0.773438 5.578125 -1.046875 L 5.578125 -3.390625 L 2.515625 -3.390625 L 2.515625 -1.03125 C 2.515625 -0.851562 2.507812 -0.71875 2.5 -0.625 C 2.488281 -0.539062 2.453125 -0.441406 2.390625 -0.328125 C 2.273438 -0.117188 1.972656 -0.015625 1.484375 -0.015625 C 0.941406 -0.015625 0.625 -0.15625 0.53125 -0.4375 C 0.488281 -0.570312 0.46875 -0.773438 0.46875 -1.046875 L 0.46875 -7.46875 C 0.46875 -7.644531 0.472656 -7.773438 0.484375 -7.859375 C 0.492188 -7.953125 0.53125 -8.054688 0.59375 -8.171875 C 0.695312 -8.378906 1 -8.484375 1.5 -8.484375 C 2.03125 -8.484375 2.347656 -8.34375 2.453125 -8.0625 C 2.492188 -7.925781 2.515625 -7.722656 2.515625 -7.453125 L 2.515625 -5.09375 L 5.578125 -5.09375 L 5.578125 -7.46875 C 5.578125 -7.644531 5.582031 -7.773438 5.59375 -7.859375 C 5.601562 -7.953125 5.640625 -8.054688 5.703125 -8.171875 Z M 5.703125 -8.171875 "/></g></g></g></g></g></g></g></g></svg>